<svg width="18" height="18" viewBox="0 0 18 18" fill="none" xmlns="http://www.w3.org/2000/svg">
<path d="M9 0C4.0371 0 0 4.0371 0 9C0 13.9629 4.0371 18 9 18C13.9629 18 18 13.9622 18 9C18 4.0378 13.9629 0 9 0ZM9 16.6057C4.80674 16.6057 1.39426 13.194 1.39426 9C1.39426 4.80604 4.80674 1.39426 9 1.39426C13.1933 1.39426 16.6057 4.80604 16.6057 9C16.6057 13.194 13.194 16.6057 9 16.6057Z" fill="white"/>
<path d="M12.4849 8.24019H9.69637V5.45166C9.69637 5.06684 9.38475 4.75452 8.99923 4.75452C8.6137 4.75452 8.30208 5.06684 8.30208 5.45166V8.24019H5.51355C5.12803 8.24019 4.81641 8.55252 4.81641 8.93734C4.81641 9.32216 5.12803 9.63448 5.51355 9.63448H8.30208V12.423C8.30208 12.8078 8.6137 13.1202 8.99923 13.1202C9.38475 13.1202 9.69637 12.8078 9.69637 12.423V9.63448H12.4849C12.8704 9.63448 13.182 9.32216 13.182 8.93734C13.182 8.55252 12.8704 8.24019 12.4849 8.24019Z" fill="white"/>
</svg>
