<svg width="20" height="20" viewBox="0 0 20 20" fill="none" xmlns="http://www.w3.org/2000/svg">
<path d="M11.6667 16.6669C11.6667 18.5079 10.1743 20.0002 8.33328 20.0002C6.4923 20.0002 5 18.5079 5 16.6669C5 14.826 6.4923 13.3335 8.33328 13.3335C10.1743 13.3335 11.6667 14.826 11.6667 16.6669Z" fill="#FFA000"/>
<path d="M14.1733 9.934C11.3483 9.53057 9.16672 7.10139 9.16672 4.1665C9.16672 3.33307 9.34492 2.54236 9.66078 1.82471C9.23418 1.72479 8.79086 1.6665 8.33328 1.6665C5.11672 1.6665 2.5 4.28307 2.5 7.49979V9.82311C2.5 11.4722 1.7775 13.029 0.509962 14.1006C0.349879 14.2373 0.221377 14.4071 0.133331 14.5983C0.0452859 14.7895 -0.000205045 14.9976 6.94763e-07 15.2081C6.94763e-07 16.0124 0.654141 16.6665 1.45828 16.6665H15.2083C16.0126 16.6665 16.6667 16.0124 16.6667 15.2081C16.6667 14.7814 16.4809 14.3772 16.1484 14.0931C14.9184 13.0523 14.205 11.5414 14.1733 9.934Z" fill="#FFC107"/>
<path d="M19.1664 4.16672C19.1664 6.46789 17.3009 8.33328 14.9997 8.33328C12.6986 8.33328 10.833 6.46789 10.833 4.16672C10.833 1.86555 12.6986 0 14.9997 0C17.3009 0 19.1664 1.86555 19.1664 4.16672Z" fill="#F44336"/>
</svg>
