<svg width="18" height="18" viewBox="0 0 18 18" fill="none" xmlns="http://www.w3.org/2000/svg">
<path d="M9 0C4.0372 0 0 4.0372 0 9C0 13.9628 4.0372 18 9 18C13.9628 18 18 13.9628 18 9C18 4.0372 13.9628 0 9 0Z" fill="#0ECB81"/>
<path d="M13.5617 7.09272L8.68666 11.9676C8.54041 12.1139 8.34843 12.1875 8.15644 12.1875C7.96445 12.1875 7.77246 12.1139 7.62621 11.9676L5.18876 9.53017C4.89541 9.23697 4.89541 8.76292 5.18876 8.46972C5.48196 8.17637 5.95587 8.17637 6.24921 8.46972L8.15644 10.3769L12.5013 6.03226C12.7945 5.73892 13.2684 5.73892 13.5617 6.03226C13.8549 6.32547 13.8549 6.79937 13.5617 7.09272Z" fill="#262735"/>
</svg>
