<svg width="16" height="16" viewBox="0 0 16 16" fill="none" xmlns="http://www.w3.org/2000/svg">
<path d="M7.14279 9.83257L10.6896 6.28571H11.8325L13.9165 4.20229L13.5119 3.79771L11.5959 5.71429H10.4531L7.14279 9.02457L5.4285 7.31029L2.65479 10.0834L3.05936 10.488L5.4285 8.11829L7.14279 9.83257Z" fill="white"/>
<path d="M5.14265 9.14286H5.71408V9.71429H5.14265V9.14286ZM5.71408 9.71429H6.28551V10.2857H5.71408V9.71429ZM5.14265 10.2857H5.71408V10.8571H5.14265V10.2857ZM6.28551 10.2857H6.85693V10.8571H6.28551V10.2857ZM5.71408 10.8571H6.28551V11.4286H5.71408V10.8571ZM5.14265 11.4286H5.71408V12H5.14265V11.4286ZM6.28551 11.4286H6.85693V12H6.28551V11.4286ZM4.57122 9.71429H5.14265V10.2857H4.57122V9.71429ZM3.99979 10.2857H4.57122V10.8571H3.99979V10.2857ZM3.42836 10.8571H3.99979V11.4286H3.42836V10.8571ZM4.57122 10.8571H5.14265V11.4286H4.57122V10.8571ZM3.99979 11.4286H4.57122V12H3.99979V11.4286ZM2.85693 11.4286H3.42836V12H2.85693V11.4286ZM12.5712 6.28572H13.1426V6.85714H12.5712V6.28572ZM13.1426 5.71429H13.7141V6.28572H13.1426V5.71429ZM13.1426 6.85714H13.7141V7.42857H13.1426V6.85714ZM12.5712 7.42857H13.1426V8H12.5712V7.42857ZM11.9998 8H12.5712V8.57143H11.9998V8ZM13.1426 8H13.7141V8.57143H13.1426V8ZM12.5712 8.57143H13.1426V9.14286H12.5712V8.57143ZM11.9998 9.14286H12.5712V9.71429H11.9998V9.14286ZM13.1426 9.14286H13.7141V9.71429H13.1426V9.14286ZM12.5712 9.71429H13.1426V10.2857H12.5712V9.71429ZM11.9998 10.2857H12.5712V10.8571H11.9998V10.2857ZM13.1426 10.2857H13.7141V10.8571H13.1426V10.2857ZM12.5712 10.8571H13.1426V11.4286H12.5712V10.8571ZM11.9998 11.4286H12.5712V12H11.9998V11.4286ZM13.1426 11.4286H13.7141V12H13.1426V11.4286ZM10.2855 7.42857H10.8569V8H10.2855V7.42857ZM11.4284 7.42857H11.9998V8H11.4284V7.42857ZM11.9998 6.85714H12.5712V7.42857H11.9998V6.85714ZM10.8569 8H11.4284V8.57143H10.8569V8ZM10.2855 8.57143H10.8569V9.14286H10.2855V8.57143ZM11.4284 8.57143H11.9998V9.14286H11.4284V8.57143ZM10.8569 9.14286H11.4284V9.71429H10.8569V9.14286ZM10.2855 9.71429H10.8569V10.2857H10.2855V9.71429ZM11.4284 9.71429H11.9998V10.2857H11.4284V9.71429ZM10.8569 10.2857H11.4284V10.8571H10.8569V10.2857ZM10.2855 10.8571H10.8569V11.4286H10.2855V10.8571ZM11.4284 10.8571H11.9998V11.4286H11.4284V10.8571ZM10.8569 11.4286H11.4284V12H10.8569V11.4286ZM9.71408 8H10.2855V8.57143H9.71408V8ZM9.14265 8.57143H9.71408V9.14286H9.14265V8.57143ZM8.57122 9.14286H9.14265V9.71429H8.57122V9.14286ZM9.71408 9.14286H10.2855V9.71429H9.71408V9.14286ZM9.14265 9.71429H9.71408V10.2857H9.14265V9.71429ZM8.57122 10.2857H9.14265V10.8571H8.57122V10.2857ZM9.71408 10.2857H10.2855V10.8571H9.71408V10.2857ZM9.14265 10.8571H9.71408V11.4286H9.14265V10.8571ZM8.57122 11.4286H9.14265V12H8.57122V11.4286ZM9.71408 11.4286H10.2855V12H9.71408V11.4286ZM7.99979 9.71429H8.57122V10.2857H7.99979V9.71429ZM7.42836 10.2857H7.99979V10.8571H7.42836V10.2857ZM6.85693 10.8571H7.42836V11.4286H6.85693V10.8571ZM7.99979 10.8571H8.57122V11.4286H7.99979V10.8571ZM7.42836 11.4286H7.99979V12H7.42836V11.4286Z" fill="white"/>
</svg>
