<svg width="14" height="14" viewBox="0 0 14 14" fill="none" xmlns="http://www.w3.org/2000/svg">
<g id="Frame">
<g id="Group">
<path id="Vector" d="M1.17745 7.58418H11.425L9.50469 9.50229C8.95351 10.0535 9.78028 10.8824 10.3315 10.3313L12.0798 8.58071L13.2483 7.41221C13.3574 7.30271 13.4186 7.15446 13.4186 6.99993C13.4186 6.84539 13.3574 6.69714 13.2483 6.58764L10.3293 3.66859C10.2742 3.61216 10.2084 3.56744 10.1356 3.53713C10.0629 3.50682 9.98476 3.49154 9.90595 3.49221C9.78956 3.49251 9.67591 3.52758 9.57957 3.5929C9.48324 3.65823 9.40861 3.75084 9.36526 3.85886C9.32191 3.96688 9.31182 4.08538 9.33626 4.19918C9.36071 4.31298 9.41859 4.41688 9.50249 4.49756L11.4272 6.41567H1.14658C0.337447 6.45756 0.396974 7.62386 1.17745 7.58418Z" fill="#A4A7B7"/>
</g>
</g>
</svg>
