<svg width="14" height="14" viewBox="0 0 14 14" fill="none" xmlns="http://www.w3.org/2000/svg">
    <path
        d="M8.39831 0.961077L5.55273 3.80663C5.54723 3.8121 5.54381 3.81874 5.53834 3.82427C6.23935 3.72216 6.95951 3.79216 7.62708 4.05248L9.55836 2.12119C10.1982 1.48137 11.2387 1.48137 11.8786 2.12119C12.5184 2.76095 12.5184 3.80157 11.8786 4.44133C11.7695 4.55049 8.86848 7.45147 9.03301 7.28688C8.38813 7.93181 7.33015 7.90422 6.71281 7.28688C6.39308 6.96715 5.87251 6.96715 5.55273 7.28688L5.05469 7.78492C5.19283 8.01964 5.3512 8.2455 5.55273 8.44702C6.76788 9.66218 8.85951 9.75925 10.1755 8.46141C10.181 8.45594 10.1876 8.45249 10.1931 8.44702L13.0387 5.60147C14.3201 4.32004 14.3201 2.24251 13.0387 0.961077C11.7572 -0.320359 9.67974 -0.320359 8.39831 0.961077Z"
        fill="currentColor" />
    <path
        d="M6.37886 9.94127L4.44134 11.8788C3.80158 12.5186 2.76096 12.5186 2.1212 11.8788C1.48138 11.239 1.48138 10.1984 2.1212 9.55859L4.97296 6.70683C5.61783 6.06196 6.67581 6.08949 7.29315 6.70683C7.61288 7.02662 8.13348 7.02662 8.45324 6.70683L8.95128 6.20879C8.81314 5.97408 8.65476 5.74822 8.45324 5.54675C7.24041 4.33386 5.15031 4.23067 3.83048 5.53234C3.82498 5.53781 3.81837 5.54125 3.81284 5.54675L0.961057 8.39854C-0.320325 9.67992 -0.32038 11.7575 0.961057 13.0389C2.24249 14.3203 4.32007 14.3203 5.60145 13.0389L8.45321 10.1871C8.45871 10.1816 8.46212 10.1751 8.46759 10.1695C7.76658 10.2716 7.04646 10.2016 6.37886 9.94127Z"
        fill="currentColor" />
</svg>