<svg width="18" height="18" viewBox="0 0 18 18" fill="none" xmlns="http://www.w3.org/2000/svg">
<g id="Group">
<path id="Vector" d="M14.7968 8.99665V17.4724C14.7968 17.7678 14.5647 18 14.2692 18H3.71846C3.423 18 3.19092 17.7678 3.19092 17.4724V9.81958C3.19092 9.62967 3.29639 9.46089 3.45469 9.3659L4.87901 8.54297C4.96345 8.49018 5.0584 8.46912 5.14278 8.46912H7.41123L8.99384 9.81958L10.5765 8.46912H14.2692C14.5647 8.46912 14.7968 8.7012 14.7968 8.99665Z" fill="#E63950"/>
<path id="Vector_2" d="M14.7966 8.99665V17.4724C14.7966 17.7678 14.5645 18 14.269 18H8.99365V9.81958L10.5763 8.46912H14.269C14.5645 8.46912 14.7966 8.7012 14.7966 8.99665Z" fill="#D0004F"/>
<path id="Vector_3" d="M9.35253 1.05547C9.25754 0.886626 9.13093 0.7284 8.99377 0.612271C8.74055 0.348502 8.42407 0.169174 8.07586 0.0742522C7.52718 -0.0734586 6.95747 0.000396812 6.4721 0.285232C5.79685 0.675681 5.39596 1.40361 5.41703 2.18441C5.42758 2.28991 5.48033 3.85846 5.48033 3.85846C5.36427 3.79516 4.16149 3.04602 4.16149 3.04602C4.02433 2.98271 3.07479 2.26526 1.90366 2.95103C1.41829 3.23593 1.07011 3.68958 0.922364 4.2277C0.774688 4.77638 0.848579 5.34609 1.13338 5.83146C1.71367 6.8443 3.01145 7.18192 4.01377 6.60163L5.37201 5.81742L3.47984 5.69127C3.32153 5.78186 3.14235 5.82963 2.95996 5.82987C2.58284 5.82987 2.23358 5.62948 2.04862 5.30645C1.9013 5.05555 1.86624 4.78046 1.94094 4.50227C2.01461 4.23488 2.1913 4.00565 2.43756 3.86138C2.60964 3.76041 2.77346 3.71145 2.93781 3.71145C3.21086 3.71145 3.437 3.84489 3.55809 3.91649L3.62505 3.95461C3.79041 4.05766 4.86301 4.72324 4.97428 4.78405L5.01395 4.80568L5.00498 4.81085L5.01958 4.81148L6.28567 5.55003L6.53186 3.93225L6.53794 3.91308L6.53478 3.82224C6.53478 3.82224 6.47759 2.18676 6.46627 2.07651C6.4606 1.7602 6.66356 1.39338 6.99999 1.19865C7.16434 1.10232 7.33744 1.05491 7.51979 1.05491C7.61356 1.05491 7.70834 1.06778 7.8021 1.09303C7.97158 1.13939 8.11841 1.2239 8.23278 1.3434L8.31212 1.4181C8.34202 1.44283 8.39094 1.49797 8.43216 1.57162C8.6846 1.99819 8.60681 2.56416 8.25958 2.90007C8.20239 2.95208 8.12717 3.00877 8.05866 3.04792L8.00622 3.0782L7.8653 4.37781L8.58219 3.9639C8.7299 3.87949 8.86709 3.77399 8.99367 3.65796C9.66902 3.00385 9.85894 1.91009 9.35253 1.05547ZM7.41116 8.46915V14.3072C7.41116 14.5183 7.53777 14.7082 7.73823 14.7925C7.92814 14.877 8.1603 14.8348 8.30794 14.6765L8.99377 14.0012L9.67961 14.6765C9.82728 14.8348 10.0594 14.8769 10.2493 14.7925C10.4498 14.7082 10.5764 14.5183 10.5764 14.3072V8.46915H7.41116Z" fill="#FED843"/>
<path id="Vector_4" d="M17.4695 6.35903H16.9419V5.83149C16.9419 5.53991 16.706 5.30396 16.4144 5.30396C16.1228 5.30396 15.8869 5.53991 15.8869 5.83149V6.35903H15.3593C15.0677 6.35903 14.8318 6.59498 14.8318 6.88657C14.8318 7.17816 15.0677 7.41411 15.3593 7.41411H15.8869V7.94165C15.8869 8.23324 16.1228 8.46919 16.4144 8.46919C16.706 8.46919 16.9419 8.23324 16.9419 7.94165V7.41411H17.4695C17.7611 7.41411 17.997 7.17816 17.997 6.88657C17.997 6.59498 17.7611 6.35903 17.4695 6.35903Z" fill="#FFB64C"/>
<path id="Vector_5" d="M15.3242 4.2488C15.6155 4.2488 15.8517 4.01262 15.8517 3.72126C15.8517 3.42991 15.6155 3.19373 15.3242 3.19373C15.0328 3.19373 14.7966 3.42991 14.7966 3.72126C14.7966 4.01262 15.0328 4.2488 15.3242 4.2488Z" fill="#FFB64C"/>
<path id="Vector_6" d="M13.2141 7.41409C13.5054 7.41409 13.7416 7.1779 13.7416 6.88655C13.7416 6.5952 13.5054 6.35901 13.2141 6.35901C12.9227 6.35901 12.6865 6.5952 12.6865 6.88655C12.6865 7.1779 12.9227 7.41409 13.2141 7.41409Z" fill="#FFB64C"/>
<path id="Vector_7" d="M8.99365 8.46915H10.5763V14.3072C10.5763 14.5183 10.4497 14.7082 10.2492 14.7925C10.0593 14.877 9.82713 14.8348 9.67949 14.6765L8.99365 14.0012V8.46915ZM8.99365 3.658V0.612305C9.13081 0.728398 9.25742 0.886625 9.35241 1.05547C9.85882 1.91008 9.6689 3.00388 8.99365 3.658Z" fill="#FFB64C"/>
<path id="Vector_8" d="M13.5623 4.14325L11.9797 1.40005C11.832 1.14683 11.5049 1.06242 11.2517 1.21013L8.99385 2.51843L8.69157 2.6928L2.69244 6.15419L0.289465 7.54063C0.0362467 7.67779 -0.0833286 8.00487 0.0643821 8.25808L1.68217 11.0013C1.82988 11.2545 2.1464 11.3389 2.39962 11.1912L8.99385 7.38237L13.3619 4.8607C13.6151 4.71306 13.6995 4.39654 13.5623 4.14325Z" fill="#FF641A"/>
<path id="Vector_9" d="M13.3617 4.8607L8.99365 7.38233V2.51843L11.2515 1.21013C11.5047 1.06242 11.8318 1.14683 11.9795 1.40005L13.5621 4.14321C13.6993 4.39654 13.6149 4.71303 13.3617 4.8607Z" fill="#E63950"/>
</g>
</svg>
