<svg width="186" height="187" viewBox="0 0 186 187" fill="none" xmlns="http://www.w3.org/2000/svg">
<g id="Group">
<path id="Vector" d="M166.758 109.762H19.2412V71.2797L92.9998 45.6245L166.758 71.2797V109.762Z" fill="#52B788"/>
<path id="Vector_2" d="M92.9998 109.762H19.2412V71.2797L92.9998 45.6245V109.762Z" fill="#40916C"/>
<path id="Vector_3" d="M93 0L101.918 18.0709L121.862 20.9667L107.431 35.0353L110.837 54.8989L93 45.5187L75.1632 54.8989L78.569 35.0353L64.1379 20.9667L84.0816 18.0709L93 0ZM150.724 6.41379L155.679 16.4514L166.759 18.0612L158.741 25.8764L160.633 36.9114L150.724 31.7002L140.815 36.9114L142.707 25.8764L134.69 18.0612L145.769 16.4514L150.724 6.41379ZM16.0345 22.4483L20.9891 32.4859L32.069 34.0957L24.0517 41.9109L25.9438 52.9459L16.0345 47.7347L6.12517 52.9459L8.01724 41.9109L0 34.0957L11.0798 32.4859L16.0345 22.4483ZM44.3482 0.727966L48.3119 8.76124L57.1758 10.0472L50.762 16.3007L52.2756 25.1292L44.3482 20.9603L36.4207 25.1292L37.9344 16.3007L31.5206 10.0472L40.3844 8.76124L44.3482 0.727966Z" fill="#FFEA00"/>
<path id="Vector_4" d="M93 0L91.528 14.0622C90.7832 21.1074 95.891 27.4226 102.936 28.167C105.367 28.424 107.822 27.9809 110.009 26.8898L121.862 20.9667L107.431 35.0418L110.837 54.9053L93 45.5187L75.1632 54.8989L78.569 35.0418L64.1379 20.9667L84.0816 18.0805L93 0ZM150.724 6.41379L150.083 15.2488C149.821 18.7816 152.473 21.857 156.006 22.118C157.085 22.1977 158.166 22.0033 159.149 21.5536L166.759 18.0452L158.741 25.8604L160.633 36.8953L150.724 31.7002L140.815 36.9114L142.707 25.8765L134.69 18.0452L145.769 16.4418L150.724 6.41379ZM16.0345 22.4483L15.3931 32.6655C15.1682 36.2007 17.8516 39.2488 21.3864 39.4737C22.7493 39.5603 24.1042 39.2099 25.2543 38.4731L32.069 34.0957L24.0517 41.9109L25.9438 52.9459L16.0345 47.7347L6.12517 52.9459L8.01724 41.9109L0 34.0957L11.0798 32.4923L16.0345 22.4483ZM44.3482 0.727966L43.6459 5.77241C43.1656 9.28196 45.6217 12.5161 49.1313 12.9964C50.4881 13.1821 51.8687 12.9285 53.0709 12.2728L57.1758 10.028L50.762 16.2814L52.2756 25.11L44.3482 20.941L36.4207 25.11L37.9344 16.2814L31.5206 10.028L40.3844 8.74521L44.3482 0.727966Z" fill="#FFD000"/>
<g id="Group_2">
<path id="Vector_5" d="M93.0001 100.142C92.4088 100.141 91.8292 99.9773 91.3253 99.6681C90.8214 99.3588 90.4128 98.9162 90.1446 98.3892C89.8765 97.8622 89.7593 97.2714 89.8059 96.682C89.8525 96.0926 90.0612 95.5275 90.4089 95.0493L93.0353 91.4383C98.352 84.0865 98.554 74.2088 93.542 66.6458C93.071 65.9381 92.9002 65.0724 93.0671 64.2389C93.234 63.4054 93.725 62.6722 94.4321 62.2005C95.1393 61.7288 96.0048 61.5571 96.8385 61.7231C97.6722 61.8892 98.4059 62.3794 98.8783 63.0861C105.376 72.8824 105.12 85.6803 98.2369 95.2096L95.6137 98.8206C95.3143 99.2325 94.921 99.5672 94.4665 99.797C94.012 100.027 93.5093 100.145 93.0001 100.142ZM67.3449 77.6935C66.5801 77.6927 65.8408 77.4186 65.2604 76.9207L59.8568 72.2899C54.1559 67.4099 49.5799 61.3526 46.4438 54.535C43.3076 47.7174 41.6857 40.3013 41.6897 32.797C41.6897 31.9465 42.0276 31.1308 42.629 30.5294C43.2304 29.928 44.0461 29.5901 44.8966 29.5901C45.7471 29.5901 46.5628 29.928 47.1642 30.5294C47.7656 31.1308 48.1035 31.9465 48.1035 32.797C48.0978 39.3778 49.5185 45.8818 52.2677 51.8608C55.017 57.8399 59.0295 63.1521 64.0289 67.4315L69.4326 72.0654C69.925 72.4931 70.2753 73.0607 70.4368 73.6926C70.5983 74.3244 70.5633 74.9905 70.3365 75.602C70.1097 76.2135 69.7018 76.7412 69.1673 77.1149C68.6328 77.4886 67.9971 77.6905 67.3449 77.6935ZM118.655 77.6935C117.866 77.6921 117.105 77.3998 116.518 76.8724C115.931 76.345 115.559 75.6197 115.473 74.8351C115.387 74.0506 115.594 73.262 116.053 72.6202C116.512 71.9784 117.192 71.5286 117.963 71.3567L124.697 69.8623C136.694 67.1545 145.783 57.3382 147.562 45.1692C147.683 44.3272 148.133 43.5676 148.814 43.0576C149.495 42.5476 150.35 42.329 151.192 42.4497C152.034 42.5705 152.794 43.0208 153.304 43.7016C153.814 44.3824 154.033 45.2379 153.912 46.08C151.745 60.8854 140.685 72.8279 126.089 76.1222L119.354 77.6166C119.125 77.6674 118.89 77.6932 118.655 77.6935ZM112.241 71.2797C111.679 71.2834 111.125 71.1373 110.638 70.8564C109.9 70.4344 109.36 69.7366 109.136 68.9163C108.912 68.0961 109.023 67.2205 109.445 66.4822L122.273 44.0339C122.705 43.3169 123.401 42.7975 124.211 42.5868C125.022 42.376 125.883 42.4906 126.61 42.9061C127.337 43.3216 127.872 44.0049 128.102 44.8101C128.332 45.6153 128.238 46.4785 127.84 47.2152L115.012 69.6635C114.733 70.1525 114.33 70.5593 113.843 70.843C113.357 71.1268 112.805 71.2774 112.241 71.2797Z" fill="#FFEA00"/>
<path id="Vector_6" d="M131.483 36.0039C133.254 36.0039 134.69 34.5681 134.69 32.797C134.69 31.0259 133.254 29.5901 131.483 29.5901C129.712 29.5901 128.276 31.0259 128.276 32.797C128.276 34.5681 129.712 36.0039 131.483 36.0039Z" fill="#FFEA00"/>
<path id="Vector_7" d="M70.5519 10.3486C72.323 10.3486 73.7588 8.91283 73.7588 7.14171C73.7588 5.37059 72.323 3.93481 70.5519 3.93481C68.7807 3.93481 67.345 5.37059 67.345 7.14171C67.345 8.91283 68.7807 10.3486 70.5519 10.3486Z" fill="#FFEA00"/>
<path id="Vector_8" d="M115.448 10.3486C117.219 10.3486 118.655 8.91283 118.655 7.14171C118.655 5.37059 117.219 3.93481 115.448 3.93481C113.677 3.93481 112.241 5.37059 112.241 7.14171C112.241 8.91283 113.677 10.3486 115.448 10.3486Z" fill="#FFEA00"/>
<path id="Vector_9" d="M147.517 74.4865C146.901 74.4858 146.299 74.3077 145.781 73.9735C145.264 73.6394 144.853 73.1632 144.599 72.6021C144.345 72.041 144.258 71.4185 144.349 70.8092C144.439 70.1999 144.703 69.6295 145.109 69.1662L167.557 43.5111C168.132 42.9275 168.908 42.5859 169.726 42.5563C170.545 42.5267 171.344 42.8114 171.959 43.352C172.574 43.8927 172.959 44.6482 173.035 45.4637C173.111 46.2792 172.872 47.0928 172.367 47.7378L149.919 73.3929C149.619 73.7352 149.25 74.0097 148.836 74.1983C148.422 74.3868 147.972 74.4851 147.517 74.4865Z" fill="#FFEA00"/>
<path id="Vector_10" d="M179.586 39.2107C181.357 39.2107 182.793 37.7749 182.793 36.0038C182.793 34.2327 181.357 32.7969 179.586 32.7969C177.815 32.7969 176.379 34.2327 176.379 36.0038C176.379 37.7749 177.815 39.2107 179.586 39.2107Z" fill="#FFEA00"/>
<path id="Vector_11" d="M60.931 42.4177C62.7021 42.4177 64.1379 40.9819 64.1379 39.2108C64.1379 37.4397 62.7021 36.0039 60.931 36.0039C59.1599 36.0039 57.7241 37.4397 57.7241 39.2108C57.7241 40.9819 59.1599 42.4177 60.931 42.4177Z" fill="#FFEA00"/>
<path id="Vector_12" d="M9.62071 10.3486C11.3918 10.3486 12.8276 8.91283 12.8276 7.14171C12.8276 5.37059 11.3918 3.93481 9.62071 3.93481C7.84959 3.93481 6.41382 5.37059 6.41382 7.14171C6.41382 8.91283 7.84959 10.3486 9.62071 10.3486Z" fill="#FFEA00"/>
<path id="Vector_13" d="M44.8966 71.2795C44.3427 71.2799 43.7981 71.1368 43.3159 70.8643C42.8338 70.5917 42.4304 70.1989 42.145 69.7242L32.5244 53.6897C32.3009 53.3327 32.15 52.9352 32.0802 52.5199C32.0104 52.1046 32.0231 51.6796 32.1176 51.2692C32.2121 50.8588 32.3865 50.4711 32.6308 50.1281C32.8752 49.7851 33.1847 49.4936 33.5417 49.2702C33.907 49.0416 34.3146 48.889 34.7401 48.8214C35.1657 48.7538 35.6005 48.7727 36.0186 48.877C36.4367 48.9812 36.8295 49.1687 37.1736 49.4281C37.5176 49.6876 37.8058 50.0137 38.021 50.387L47.6417 66.4215C47.9337 66.9078 48.0916 67.4629 48.0991 68.0301C48.1066 68.5973 47.9636 69.1564 47.6845 69.6503C47.4054 70.1442 47.0003 70.5552 46.5106 70.8414C46.0208 71.1276 45.4638 71.2788 44.8966 71.2795Z" fill="#FFEA00"/>
</g>
<path id="Vector_14" d="M19.2412 161.073L92.9998 186.728V96.9347L19.2412 71.2795V161.073Z" fill="#40916C"/>
<path id="Vector_15" d="M166.759 161.073L93 186.728V96.9347L166.759 71.2795V161.073Z" fill="#95D5B2"/>
<path id="Vector_16" d="M166.759 118.453L118.655 135.417C118.666 148.171 128.992 158.511 141.745 158.539C144.24 158.532 146.718 158.132 149.089 157.353L166.759 151.452V161.073L93 186.728V96.9347L166.759 71.2795V118.453Z" fill="#52B788"/>
<path id="Vector_17" d="M186 100.142L112.241 129.004L93 96.9347L166.759 71.2795L186 100.142ZM0 100.142L73.7586 129.004L93 96.9347L19.2414 71.2795L0 100.142Z" fill="#D8F3DC"/>
<path id="Vector_18" d="M92.9998 167.487L19.2412 141.831V125.797L92.9998 151.452V167.487Z" fill="#C62828"/>
<path id="Vector_19" d="M93 167.487L166.759 141.831V125.797L93 151.452V167.487Z" fill="#EF5350"/>
<path id="Vector_20" d="M129.302 154.851L93 167.486V151.452L119.681 142.184C121.264 147.424 124.679 151.92 129.302 154.851Z" fill="#E53935"/>
<path id="Vector_21" d="M186 100.142L112.241 129.004L93 96.9347L106.277 92.3168C113.587 104.207 128.358 109.162 141.36 104.086L178.849 89.4306L186 100.142ZM79.9159 118.742L73.7586 129.004L0 100.142L19.2414 71.2795L29.279 74.7751C24.7568 86.3315 30.4559 99.3663 42.0103 103.894L79.9159 118.742Z" fill="#95D5B2"/>
<path id="Vector_22" d="M86.5862 84.1071C85.7356 84.1071 84.92 83.7692 84.3185 83.1678C83.7171 82.5664 83.3793 81.7507 83.3793 80.9002V80.3518C83.3866 77.8959 82.9065 75.4629 81.9668 73.1939C81.0272 70.9248 79.6466 68.8647 77.9051 67.133C77.3209 66.5282 76.9977 65.7181 77.005 64.8773C77.0123 64.0364 77.3496 63.2321 77.9442 62.6375C78.5387 62.0429 79.3431 61.7057 80.1839 61.6984C81.0247 61.6911 81.8348 62.0143 82.4396 62.5985C84.7783 64.9245 86.6323 67.6913 87.8946 70.7386C89.1568 73.786 89.8021 77.0534 89.7931 80.3518V80.9002C89.7931 81.7507 89.4552 82.5664 88.8538 83.1678C88.2524 83.7692 87.4367 84.1071 86.5862 84.1071Z" fill="#FFEA00"/>
</g>
</svg>
