<svg width="14" height="14" viewBox="0 0 14 14" fill="none" xmlns="http://www.w3.org/2000/svg">
  <path d="M2.29663 12.8496L7.00074 8.14473L11.7048 12.8496L11.8108 12.9556L11.9169 12.8497L12.851 11.917L12.9572 11.811L12.8511 11.7048L8.14565 6.99995L12.851 2.29639L12.9571 2.1904L12.8511 2.08431L11.9184 1.15035L11.8123 1.04415L11.7062 1.15028L7.00076 5.85516L2.29663 1.15029L2.1905 1.04414L2.08443 1.15035L1.15168 2.08431L1.04574 2.19038L1.15175 2.29638L5.85585 6.99994L1.15175 11.7035L1.04574 11.8095L1.15168 11.9156L2.08443 12.8495L2.1905 12.9557L2.29663 12.8496Z" fill="currentColor" stroke="currentColor" strokeWidth="0.3"/>
</svg>
