<svg width="22" height="25" viewBox="0 0 22 25" fill="none" xmlns="http://www.w3.org/2000/svg">
<path d="M20.8615 18.4243C20.7859 18.3486 20.6961 18.2886 20.5973 18.2476C20.4986 18.2067 20.3927 18.1856 20.2857 18.1856C20.1788 18.1856 20.0729 18.2067 19.9741 18.2476C19.8753 18.2886 19.7855 18.3486 19.71 18.4243L16.8143 21.3199V1.85712C16.8143 1.40746 16.4501 1.04284 16 1.04284C15.5499 1.04284 15.1857 1.40746 15.1857 1.85712L15.1857 21.3199L12.29 18.4243C12.29 18.4242 12.29 18.4242 12.29 18.4242C11.972 18.106 11.4567 18.1063 11.1386 18.4242C10.8204 18.7422 10.8204 19.2575 11.1386 19.5757L15.4243 23.8613L15.4946 23.791L15.4243 23.8614C15.4999 23.937 15.5896 23.997 15.6884 24.038C15.7872 24.0789 15.8931 24.1 16 24.1C16.107 24.1 16.2129 24.0789 16.3116 24.038C16.4104 23.997 16.5002 23.937 16.5757 23.8614L16.5054 23.791L16.5758 23.8613L20.8614 19.5757C21.0204 19.4167 21.1 19.2081 21.1 18.9999C21.1 18.7918 21.0204 18.5832 20.8615 18.4243ZM20.8615 18.4243L20.7907 18.4949L20.8614 18.4242C20.8614 18.4242 20.8615 18.4243 20.8615 18.4243ZM1.13862 5.56712L5.42428 1.28146C5.4243 1.28144 5.42431 1.28143 5.42432 1.28141C5.49989 1.20577 5.58963 1.14576 5.6884 1.10481C5.78719 1.06385 5.89309 1.04277 6.00003 1.04277C6.10698 1.04277 6.21288 1.06385 6.31167 1.10481C6.41044 1.14576 6.50018 1.20577 6.57574 1.28141C6.57576 1.28143 6.57577 1.28144 6.57579 1.28146L10.8614 5.56712C11.0204 5.72607 11.1 5.93468 11.1 6.14283C11.1 6.35096 11.0204 6.55955 10.8615 6.7185L1.13862 5.56712ZM1.13862 5.56712C0.820473 5.88527 0.82044 6.40056 1.13864 6.71856C1.45675 7.03647 1.97203 7.03675 2.29006 6.71852L5.18575 3.82283L5.18575 23.2856C5.18575 23.7353 5.54995 24.0999 6.00003 24.0999C6.45012 24.0999 6.81432 23.7353 6.81432 23.2856L6.81432 3.82283L1.13862 5.56712ZM16.7143 21.5614L16.8143 21.4614L16.7143 21.5614Z" fill="#6C7080" stroke="#6C7080" stroke-width="0.2"/>
</svg>
