<svg width="14" height="14" viewBox="0 0 14 14" fill="none" xmlns="http://www.w3.org/2000/svg">
    <path
        d="M11.5836 0H5.2164C4.57576 0.000741055 3.96157 0.255563 3.50857 0.708566C3.05556 1.16157 2.80074 1.77576 2.8 2.4164V2.8H2.4164C1.77576 2.80074 1.16157 3.05556 0.708566 3.50857C0.255563 3.96157 0.000741055 4.57576 0 5.2164V11.5836C0.000741055 12.2242 0.255563 12.8384 0.708566 13.2914C1.16157 13.7444 1.77576 13.9993 2.4164 14H8.7836C10.0072 14 11.011 13.0816 11.1678 11.9H11.5836C12.2242 11.8993 12.8384 11.6444 13.2914 11.1914C13.7444 10.7384 13.9993 10.1242 14 9.4836V2.4164C13.9993 1.77576 13.7444 1.16157 13.2914 0.708566C12.8384 0.255563 12.2242 0.000741055 11.5836 0ZM12.6 9.4836C12.6 10.0436 12.1443 10.5 11.5836 10.5H11.2V5.2164C11.1993 4.57576 10.9444 3.96157 10.4914 3.50857C10.0384 3.05556 9.42424 2.80074 8.7836 2.8H4.2V2.4164C4.2 1.8564 4.6557 1.4 5.2164 1.4H11.5836C12.1436 1.4 12.6 1.8557 12.6 2.4164V9.4836Z"
        fill="currentColor" />
</svg>