<svg width="148" height="100" viewBox="0 0 148 100" fill="none" xmlns="http://www.w3.org/2000/svg">
<circle cx="74.4375" cy="50" r="50" fill="#5367FE" fill-opacity="0.2"/>
<g clip-path="url(#clip0_4916_8494)">
<path d="M57.8779 40.9424L60.1482 68.3489C60.3109 70.3254 61.9944 71.875 63.9784 71.875H84.8968C86.8808 71.875 88.5643 70.3254 88.727 68.3489L90.9972 40.9424H57.8779ZM68.0277 66.748C67.3567 66.748 66.7922 66.2261 66.7497 65.5464L65.468 44.8677C65.4241 44.1605 65.9611 43.5522 66.6671 43.5083C67.3993 43.457 67.9814 44.0003 68.0264 44.7074L69.3081 65.3862C69.3535 66.1185 68.7741 66.748 68.0277 66.748ZM75.7193 65.4663C75.7193 66.1748 75.146 66.748 74.4376 66.748C73.7291 66.748 73.1558 66.1748 73.1558 65.4663V44.7876C73.1558 44.0791 73.7291 43.5059 74.4376 43.5059C75.146 43.5059 75.7193 44.0791 75.7193 44.7876V65.4663ZM83.4072 44.8677L82.1254 65.5465C82.0833 66.2193 81.5225 66.78 80.7661 66.7456C80.0601 66.7017 79.5232 66.0934 79.567 65.3862L80.8487 44.7075C80.8926 44.0004 81.5122 43.4859 82.2081 43.5084C82.914 43.5523 83.451 44.1606 83.4072 44.8677Z" fill="#5367FE"/>
<path d="M91.1016 33.252H83.4111V31.9702C83.4111 29.8499 81.6863 28.125 79.5659 28.125H69.312C67.1917 28.125 65.4668 29.8499 65.4668 31.9702V33.252H57.7764C56.3606 33.252 55.2129 34.3996 55.2129 35.8154C55.2129 37.2311 56.3606 38.3789 57.7764 38.3789C69.5655 38.3789 79.3129 38.3789 91.1016 38.3789C92.5174 38.3789 93.665 37.2311 93.665 35.8154C93.665 34.3996 92.5174 33.252 91.1016 33.252ZM80.8477 33.252H68.0303V31.9702C68.0303 31.263 68.6048 30.6885 69.312 30.6885H79.5659C80.2731 30.6885 80.8477 31.263 80.8477 31.9702V33.252Z" fill="#5367FE"/>
</g>
<circle cx="138" cy="17.8125" r="10" fill="#5367FE" fill-opacity="0.2"/>
<circle cx="8" cy="50.1875" r="8" fill="#5367FE" fill-opacity="0.2"/>
<circle cx="121.906" cy="91.2188" r="4.5" fill="#5367FE" fill-opacity="0.2"/>
<defs>
<clipPath id="clip0_4916_8494">
<rect width="43.75" height="43.75" fill="white" transform="translate(52.5625 28.125)"/>
</clipPath>
</defs>
</svg>
