<svg width="22" height="20" viewBox="0 0 22 20" fill="none" xmlns="http://www.w3.org/2000/svg">
<path d="M17 5H17.75C17.75 4.80109 17.671 4.61032 17.5303 4.46967C17.3897 4.32902 17.1989 4.25 17 4.25V5ZM5 5V4.25C4.80109 4.25 4.61032 4.32902 4.46967 4.46967C4.32902 4.61032 4.25 4.80109 4.25 5H5ZM16.25 5V9H17.75V5H16.25ZM16.25 9V17H17.75V9H16.25ZM15 18.25H7V19.75H15V18.25ZM5.75 17V5H4.25V17H5.75ZM5 5.75H17V4.25H5V5.75ZM5 1.75H17V0.25H5V1.75ZM1.75 5C1.75 4.13805 2.09241 3.3114 2.7019 2.7019C3.3114 2.09241 4.13805 1.75 5 1.75V0.25C3.74022 0.25 2.53204 0.750445 1.64124 1.64124C0.750445 2.53204 0.25 3.74022 0.25 5H1.75ZM5 8.25C4.13805 8.25 3.3114 7.90759 2.7019 7.2981C2.09241 6.6886 1.75 5.86195 1.75 5H0.25C0.25 6.25978 0.750445 7.46796 1.64124 8.35876C2.53204 9.24955 3.74022 9.75 5 9.75V8.25ZM20.25 5C20.25 5.86195 19.9076 6.6886 19.2981 7.2981C18.6886 7.90759 17.862 8.25 17 8.25V9.75C18.2598 9.75 19.468 9.24955 20.3588 8.35876C21.2496 7.46796 21.75 6.25978 21.75 5H20.25ZM21.75 5C21.75 3.74022 21.2496 2.53204 20.3588 1.64124C19.468 0.750445 18.2598 0.25 17 0.25V1.75C17.862 1.75 18.6886 2.09241 19.2981 2.7019C19.9076 3.3114 20.25 4.13805 20.25 5H21.75ZM16.25 17C16.25 17.69 15.69 18.25 15 18.25V19.75C15.7293 19.75 16.4288 19.4603 16.9445 18.9445C17.4603 18.4288 17.75 17.7293 17.75 17H16.25ZM7 18.25C6.31 18.25 5.75 17.69 5.75 17H4.25C4.25 17.7293 4.53973 18.4288 5.05546 18.9445C5.57118 19.4603 6.27065 19.75 7 19.75V18.25ZM12.47 11.116C12.5387 11.1897 12.6215 11.2488 12.7135 11.2898C12.8055 11.3308 12.9048 11.3528 13.0055 11.3546C13.1062 11.3564 13.2062 11.3378 13.2996 11.3001C13.393 11.2624 13.4778 11.2063 13.549 11.135C13.6203 11.0638 13.6764 10.979 13.7141 10.8856C13.7518 10.7922 13.7704 10.6922 13.7686 10.5915C13.7668 10.4908 13.7448 10.3915 13.7038 10.2995C13.6628 10.2075 13.6037 10.1247 13.53 10.056L12.47 11.116ZM8.47 10.056C8.39631 10.1247 8.33721 10.2075 8.29622 10.2995C8.25523 10.3915 8.23318 10.4908 8.23141 10.5915C8.22963 10.6922 8.24816 10.7922 8.28588 10.8856C8.3236 10.979 8.37974 11.0638 8.45096 11.135C8.52218 11.2063 8.60701 11.2624 8.7004 11.3001C8.79379 11.3378 8.89382 11.3564 8.99452 11.3546C9.09523 11.3528 9.19454 11.3308 9.28654 11.2898C9.37854 11.2488 9.46134 11.1897 9.53 11.116L8.47 10.056ZM10.25 14.586C10.25 14.7849 10.329 14.9757 10.4697 15.1163C10.6103 15.257 10.8011 15.336 11 15.336C11.1989 15.336 11.3897 15.257 11.5303 15.1163C11.671 14.9757 11.75 14.7849 11.75 14.586H10.25ZM11.75 9.586C11.75 9.38709 11.671 9.19632 11.5303 9.05567C11.3897 8.91502 11.1989 8.836 11 8.836C10.8011 8.836 10.6103 8.91502 10.4697 9.05567C10.329 9.19632 10.25 9.38709 10.25 9.586H11.75ZM13.53 10.056L12.237 8.763L11.177 9.823L12.47 11.116L13.53 10.056ZM9.763 8.763L8.47 10.056L9.53 11.116L10.823 9.823L9.763 8.763ZM12.237 8.763C11.9088 8.43508 11.4639 8.25087 11 8.25087C10.5361 8.25087 10.0912 8.43508 9.763 8.763L10.823 9.823C10.8462 9.79972 10.8738 9.78125 10.9042 9.76864C10.9346 9.75604 10.9671 9.74955 11 9.74955C11.0329 9.74955 11.0654 9.75604 11.0958 9.76864C11.1262 9.78125 11.1538 9.79972 11.177 9.823L12.237 8.763ZM11.75 14.586V9.586H10.25V14.586H11.75Z" fill="white"/>
</svg>
