<svg width="140" height="122" viewBox="0 0 140 122" fill="none" xmlns="http://www.w3.org/2000/svg">
<path d="M25.9675 61.1874V2.7749C25.9675 2.11186 26.2309 1.47598 26.6997 1.00714C27.1685 0.538295 27.8044 0.274902 28.4675 0.274902H84.8525L113.467 32.0049V71.8874C113.467 71.8874 113.477 74.9249 113.225 79.5949L99.1475 74.4874C98.3204 74.1875 97.4287 74.1112 96.5627 74.2662C95.6966 74.4211 94.8868 74.8018 94.215 75.3699L86.635 81.7774C86.0081 82.3076 85.2602 82.6753 84.4575 82.848C83.6548 83.0206 82.8219 82.993 82.0325 82.7674L67.0975 78.4999L81.52 88.8024C82.406 89.4352 83.4743 89.7614 84.5627 89.7317C85.651 89.7019 86.6999 89.3177 87.55 88.6374L94.8775 82.7749C95.5542 82.2343 96.3596 81.8785 97.2149 81.7423C98.0702 81.606 98.9463 81.6939 99.7575 81.9974L112.697 86.8499C111.705 97.6349 109.425 111.777 104.202 120.557C103.977 120.913 103.666 121.205 103.298 121.408C102.929 121.611 102.516 121.717 102.095 121.717C92.5275 121.725 35.725 121.725 19.8475 121.725C19.4164 121.724 18.9928 121.612 18.6177 121.4C18.2427 121.187 17.929 120.881 17.7071 120.512C17.4852 120.142 17.3627 119.722 17.3513 119.291C17.34 118.86 17.4403 118.433 17.6425 118.052C25.4 101.207 25.9675 71.8874 25.9675 71.8874V68.6099L36.9375 64.4974C37.7482 64.1936 38.6239 64.1056 39.4789 64.2419C40.3339 64.3781 41.1389 64.7341 41.815 65.2749L49.145 71.1374C49.995 71.8177 51.0439 72.2019 52.1323 72.2317C53.2206 72.2614 54.289 71.9352 55.175 71.3024L69.5975 60.9999L54.6625 65.2674C53.873 65.493 53.0401 65.5206 52.2374 65.348C51.4347 65.1753 50.6869 64.8076 50.06 64.2774L42.48 57.8699C41.8081 57.3018 40.9983 56.9211 40.1322 56.7662C39.2662 56.6112 38.3746 56.6875 37.5475 56.9874L25.9675 61.1874Z" fill="#A4A7B7"/>
<path d="M111.447 86.3823L112.7 86.8823C111.707 97.6673 109.427 111.822 104.202 120.607C103.977 120.963 103.666 121.255 103.298 121.458C102.929 121.661 102.516 121.767 102.095 121.767C92.5275 121.775 35.725 121.775 19.8475 121.775C19.416 121.775 18.992 121.663 18.6166 121.45C18.2413 121.237 17.9274 120.931 17.7054 120.561C17.4834 120.191 17.361 119.77 17.3499 119.339C17.3389 118.907 17.4397 118.481 17.6425 118.1L17.74 117.885C48.525 119.332 93.2299 113.94 99.1175 111.635C103.492 109.922 108.662 97.9723 111.447 86.3823Z" fill="#6C7080"/>
<path d="M113.468 32.0049C105.88 29.0074 97.8425 28.9224 89.595 30.1974C89.2172 30.2567 88.8308 30.2283 88.4658 30.1144C88.1007 30.0004 87.7668 29.804 87.4898 29.5403C87.2128 29.2766 87.0002 28.9527 86.8685 28.5937C86.7367 28.2347 86.6894 27.8502 86.73 27.4699C87.635 18.2349 86.7225 9.1999 84.8525 0.274902C96.9475 9.2524 106.5 19.8224 113.468 32.0049Z" fill="#6C7080"/>
<path d="M5.19499 40.4451L17.695 55.1201C17.9077 55.3699 18.1676 55.5754 18.4598 55.7248C18.7519 55.8742 19.0706 55.9646 19.3977 55.9908C19.7248 56.0171 20.0539 55.9786 20.3661 55.8777C20.6783 55.7768 20.9676 55.6153 21.2175 55.4026C21.4673 55.1898 21.6728 54.93 21.8222 54.6378C21.9716 54.3456 22.062 54.0269 22.0883 53.6998C22.1145 53.3727 22.0761 53.0437 21.9751 52.7314C21.8742 52.4192 21.7127 52.1299 21.5 51.8801L8.99998 37.2051C8.79095 36.9434 8.53148 36.7265 8.23698 36.5671C7.94249 36.4077 7.61896 36.309 7.28562 36.2771C6.95227 36.2451 6.6159 36.2804 6.29647 36.3809C5.97703 36.4814 5.68105 36.6451 5.42609 36.8622C5.17112 37.0793 4.96237 37.3454 4.81223 37.6447C4.66209 37.9441 4.57361 38.2705 4.55206 38.6047C4.5305 38.9389 4.57631 39.274 4.68675 39.5901C4.79719 39.9063 4.97002 40.197 5.19499 40.4451Z" fill="#A4A7B7"/>
<path d="M5.32998 62.26L14.2025 64.6375C14.843 64.8093 15.5255 64.7195 16.0998 64.388C16.6741 64.0566 17.0932 63.5105 17.265 62.87C17.4367 62.2295 17.347 61.547 17.0155 60.9727C16.684 60.3984 16.138 59.9793 15.4975 59.8075L6.62498 57.43C5.98448 57.2583 5.30199 57.348 4.72766 57.6795C4.15333 58.011 3.7342 58.557 3.56248 59.1975C3.39075 59.838 3.48049 60.5205 3.81196 61.0948C4.14343 61.6692 4.68948 62.0883 5.32998 62.26Z" fill="#A4A7B7"/>
<path d="M4.15251 82.8226L20.8475 73.1826C21.417 72.8487 21.8314 72.3031 22.0001 71.6649C22.1688 71.0267 22.0783 70.3476 21.7482 69.7759C21.4181 69.2041 20.8753 68.7862 20.2382 68.6132C19.6011 68.4403 18.9214 68.5263 18.3475 68.8526L1.65252 78.4926C1.083 78.8265 0.668661 79.3721 0.499921 80.0103C0.331181 80.6485 0.421738 81.3276 0.751829 81.8993C1.08192 82.4711 1.62475 82.889 2.26185 83.062C2.89896 83.2349 3.57862 83.1489 4.15251 82.8226Z" fill="#A4A7B7"/>
<path d="M134.805 109.035L122.305 94.3597C121.871 93.8688 121.262 93.5678 120.608 93.5216C119.955 93.4754 119.309 93.6876 118.81 94.1126C118.312 94.5375 118 95.1413 117.942 95.7939C117.884 96.4466 118.084 97.0959 118.5 97.6022L131 112.277C131.434 112.768 132.043 113.069 132.697 113.115C133.35 113.162 133.996 112.949 134.495 112.524C134.993 112.099 135.305 111.496 135.363 110.843C135.421 110.19 135.221 109.541 134.805 109.035ZM134.67 87.2222L125.798 84.8447C125.48 84.7597 125.15 84.738 124.824 84.7808C124.499 84.8236 124.185 84.9301 123.9 85.0942C123.616 85.2583 123.367 85.4769 123.167 85.7373C122.967 85.9978 122.82 86.2951 122.735 86.6122C122.65 86.9294 122.628 87.2602 122.671 87.5857C122.714 87.9112 122.82 88.2252 122.985 88.5095C123.149 88.7939 123.367 89.0432 123.628 89.2431C123.888 89.443 124.185 89.5897 124.503 89.6747L133.375 92.0522C134.016 92.224 134.698 92.1342 135.272 91.8027C135.847 91.4713 136.266 90.9252 136.438 90.2847C136.609 89.6442 136.519 88.9617 136.188 88.3874C135.857 87.8131 135.311 87.3939 134.67 87.2222ZM135.848 66.6597L119.153 76.2972C118.583 76.6311 118.169 77.1767 118 77.8149C117.831 78.4532 117.922 79.1322 118.252 79.704C118.582 80.2757 119.125 80.6936 119.762 80.8666C120.399 81.0396 121.079 80.9535 121.653 80.6272L138.348 70.9897C138.917 70.6558 139.331 70.1103 139.5 69.472C139.669 68.8338 139.578 68.1547 139.248 67.583C138.918 67.0113 138.375 66.5933 137.738 66.4203C137.101 66.2474 136.421 66.3334 135.848 66.6597Z" fill="#A4A7B7"/>
<path d="M39.66 23.25L48.5 32.09C48.9691 32.5587 49.6052 32.822 50.2684 32.8217C50.9316 32.8215 51.5675 32.5578 52.0363 32.0887C52.5051 31.6196 52.7683 30.9835 52.768 30.3203C52.7678 29.6572 52.5041 29.0212 52.035 28.5525L43.195 19.715C42.7235 19.2596 42.092 19.0076 41.4365 19.0133C40.781 19.019 40.154 19.2819 39.6905 19.7454C39.227 20.2089 38.964 20.836 38.9583 21.4915C38.9527 22.147 39.2046 22.7785 39.66 23.25Z" fill="black"/>
<path d="M48.5 19.715L39.66 28.5525C39.1909 29.0212 38.9272 29.6572 38.927 30.3203C38.9268 30.9835 39.19 31.6196 39.6588 32.0887C40.1275 32.5578 40.7634 32.8215 41.4266 32.8217C42.0898 32.822 42.7259 32.5587 43.195 32.09L52.035 23.25C52.4904 22.7785 52.7424 22.147 52.7367 21.4915C52.731 20.836 52.4681 20.2089 52.0046 19.7454C51.541 19.2819 50.914 19.019 50.2585 19.0133C49.603 19.0076 48.9715 19.2596 48.5 19.715ZM67.16 23.25L76 32.09C76.4691 32.5587 77.1052 32.822 77.7684 32.8217C78.4316 32.8215 79.0675 32.5578 79.5363 32.0887C80.005 31.6196 80.2682 30.9835 80.268 30.3203C80.2678 29.6572 80.0041 29.0212 79.535 28.5525L70.695 19.715C70.2235 19.2596 69.592 19.0076 68.9365 19.0133C68.281 19.019 67.654 19.2819 67.1905 19.7454C66.7269 20.2089 66.464 20.836 66.4583 21.4915C66.4526 22.147 66.7046 22.7785 67.16 23.25Z" fill="black"/>
<path d="M76 19.715L67.16 28.5525C66.6909 29.0212 66.4272 29.6572 66.427 30.3203C66.4267 30.9835 66.69 31.6196 67.1587 32.0887C67.6275 32.5578 68.2634 32.8215 68.9266 32.8217C69.5898 32.822 70.2259 32.5587 70.695 32.09L79.535 23.25C79.9904 22.7785 80.2424 22.1469 80.2367 21.4915C80.231 20.836 79.9681 20.2089 79.5045 19.7454C79.041 19.2819 78.414 19.019 77.7585 19.0133C77.103 19.0076 76.4715 19.2596 76 19.715ZM46.095 47.0225L49.6025 44.395L53.095 47.02C53.528 47.3451 54.0548 47.5209 54.5962 47.5209C55.1377 47.5209 55.6645 47.3451 56.0975 47.02L59.5975 44.395L63.0975 47.02C63.5301 47.3449 64.0565 47.5206 64.5975 47.5206C65.1385 47.5206 65.6649 47.3449 66.0975 47.02L69.5975 44.395L73.0975 47.02C73.3601 47.2169 73.659 47.3603 73.977 47.4417C74.2951 47.5232 74.626 47.5413 74.951 47.4948C75.2761 47.4484 75.5887 47.3384 75.8712 47.1712C76.1537 47.0039 76.4005 46.7826 76.5975 46.52C76.7945 46.2573 76.9378 45.9584 77.0193 45.6404C77.1007 45.3224 77.1188 44.9914 77.0724 44.6664C77.0259 44.3414 76.9159 44.0287 76.7487 43.7462C76.5814 43.4637 76.3601 43.2169 76.0975 43.02L71.1 39.27C70.6669 38.9462 70.1407 38.7712 69.6 38.7712C69.0593 38.7712 68.5331 38.9462 68.1 39.27L64.5975 41.895L61.0975 39.27C60.6644 38.9462 60.1382 38.7712 59.5975 38.7712C59.0568 38.7712 58.5306 38.9462 58.0975 39.27L54.5975 41.895L51.1075 39.2725C50.6752 38.9472 50.1489 38.771 49.6079 38.7706C49.0669 38.7701 48.5403 38.9454 48.1075 39.27L43.1 43.02C42.5693 43.4175 42.2181 44.0093 42.1234 44.6655C42.0288 45.3217 42.1984 45.9887 42.595 46.52C43.4225 47.6225 44.99 47.85 46.095 47.0225Z" fill="black"/>
</svg>
