<svg width="16" height="14" viewBox="0 0 16 14" fill="none" xmlns="http://www.w3.org/2000/svg">
<path d="M6.96273 1.14666L1.14055 11.2303C1.03538 11.4123 0.98 11.6189 0.97998 11.8292C0.979961 12.0395 1.0353 12.2461 1.14044 12.4282C1.24557 12.6103 1.3968 12.7615 1.57891 12.8667C1.76102 12.9718 1.96761 13.0271 2.17789 13.0271H13.8213C14.0316 13.0271 14.2382 12.9718 14.4203 12.8667C14.6024 12.7615 14.7536 12.6103 14.8588 12.4282C14.9639 12.2461 15.0193 12.0395 15.0192 11.8292C15.0192 11.6189 14.9638 11.4123 14.8587 11.2303L9.03711 1.14666C8.93199 0.964596 8.7808 0.813412 8.59874 0.7083C8.41668 0.603188 8.21015 0.547852 7.99992 0.547852C7.78969 0.547852 7.58317 0.603188 7.40111 0.7083C7.21904 0.813412 7.06785 0.964596 6.96273 1.14666Z" fill="#F6465D"/>
<path d="M8.07598 4.25684H7.9241C7.55019 4.25684 7.24707 4.55995 7.24707 4.93387V8.16996C7.24707 8.54387 7.55019 8.84699 7.9241 8.84699H8.07598C8.44989 8.84699 8.75301 8.54387 8.75301 8.16996V4.93387C8.75301 4.55995 8.44989 4.25684 8.07598 4.25684Z" fill="white"/>
<path d="M8.00004 11.4137C8.41589 11.4137 8.75301 11.0765 8.75301 10.6607C8.75301 10.2448 8.41589 9.90771 8.00004 9.90771C7.58419 9.90771 7.24707 10.2448 7.24707 10.6607C7.24707 11.0765 7.58419 11.4137 8.00004 11.4137Z" fill="white"/>
</svg>
