<svg width="19" height="18" viewBox="0 0 19 18" fill="none" xmlns="http://www.w3.org/2000/svg">
<path d="M18 16.1053H0.947368C0.696111 16.1053 0.455144 16.2051 0.277478 16.3827C0.0998117 16.5604 0 16.8014 0 17.0526C0 17.3039 0.0998117 17.5449 0.277478 17.7225C0.455144 17.9002 0.696111 18 0.947368 18H18C18.2513 18 18.4922 17.9002 18.6699 17.7225C18.8476 17.5449 18.9474 17.3039 18.9474 17.0526C18.9474 16.8014 18.8476 16.5604 18.6699 16.3827C18.4922 16.2051 18.2513 16.1053 18 16.1053ZM9.47368 0C9.22243 0 8.98146 0.0998117 8.80379 0.277478C8.62613 0.455144 8.52632 0.696111 8.52632 0.947368V10.98L5.40947 7.85368C5.23108 7.67529 4.98913 7.57507 4.73684 7.57507C4.48456 7.57507 4.2426 7.67529 4.06421 7.85368C3.88582 8.03208 3.7856 8.27403 3.7856 8.52632C3.7856 8.7786 3.88582 9.02055 4.06421 9.19895L8.80105 13.9358C8.88912 14.0246 8.9939 14.0951 9.10935 14.1432C9.22479 14.1913 9.34862 14.216 9.47368 14.216C9.59875 14.216 9.72258 14.1913 9.83802 14.1432C9.95347 14.0951 10.0582 14.0246 10.1463 13.9358L14.8832 9.19895C14.9715 9.11062 15.0416 9.00575 15.0894 8.89034C15.1372 8.77493 15.1618 8.65124 15.1618 8.52632C15.1618 8.4014 15.1372 8.2777 15.0894 8.16229C15.0416 8.04688 14.9715 7.94202 14.8832 7.85368C14.7948 7.76535 14.69 7.69528 14.5746 7.64748C14.4591 7.59968 14.3354 7.57507 14.2105 7.57507C14.0856 7.57507 13.9619 7.59968 13.8465 7.64748C13.7311 7.69528 13.6262 7.76535 13.5379 7.85368L10.4211 10.98V0.947368C10.4211 0.696111 10.3212 0.455144 10.1436 0.277478C9.96591 0.0998117 9.72494 0 9.47368 0Z" fill="white"/>
</svg>
