<svg width="14" height="14" viewBox="0 0 14 14" fill="none" xmlns="http://www.w3.org/2000/svg">
<g clip-path="url(#clip0_3549_11148)">
<path d="M14.0379 0.45963L14.0379 0.459674C14.0397 0.468979 14.0411 0.478868 14.0422 0.486839L14.0379 0.45963ZM14.0379 0.45963C14.0361 0.450686 14.0337 0.441412 14.0318 0.434026M14.0379 0.45963L14.0318 0.434026M14.0123 0.3693L14.0123 0.369363C14.013 0.371056 14.0137 0.372959 14.0144 0.375019L14.0123 0.3693ZM14.0123 0.3693C14.0117 0.367614 14.011 0.365637 14.0103 0.363464C14.008 0.3569 14.005 0.348548 14.0019 0.341042C13.9988 0.333534 13.9949 0.325448 13.9919 0.319212C13.9909 0.317117 13.99 0.31523 13.9893 0.313645L13.9892 0.31353M14.0123 0.3693L13.9892 0.31353M13.9892 0.31353C13.9884 0.311877 13.9876 0.310019 13.9867 0.308014C13.9835 0.301186 13.9795 0.292664 13.9753 0.284811L13.9753 0.284714M13.9892 0.31353L13.9753 0.284714M13.9753 0.284714C13.9715 0.277649 13.9669 0.270194 13.9634 0.264345C13.9622 0.26244 13.9612 0.260706 13.9603 0.25921L13.9603 0.259203M13.9753 0.284714L13.9603 0.259203M13.9603 0.259203C13.9593 0.257588 13.9582 0.255739 13.957 0.253728C13.9532 0.247238 13.9484 0.239066 13.9435 0.231671C13.9383 0.223938 13.9323 0.216012 13.9275 0.209713C13.9261 0.207789 13.9247 0.206017 13.9235 0.204448L13.9235 0.204339M13.9603 0.259203L13.9235 0.204339M13.9235 0.204339C13.9226 0.203215 13.9214 0.201585 13.92 0.199654C13.9163 0.194577 13.9111 0.18742 13.9066 0.181928L13.9066 0.181835M13.9235 0.204339L13.9066 0.181835M13.9066 0.181835C13.8948 0.167571 13.8825 0.153669 13.8694 0.140289L13.8694 0.140264L13.865 0.135817L13.8649 0.135768M13.9066 0.181835L13.8649 0.135768M13.8649 0.135768L13.8649 0.135762L13.8647 0.135517L13.8646 0.13544M13.8649 0.135768L13.8646 0.13544M13.8646 0.13544C13.8643 0.135136 13.864 0.134834 13.8637 0.134541L13.8646 0.13544ZM13.7153 0.0248113L13.7154 0.0248634C13.7225 0.0286424 13.7299 0.0331956 13.7357 0.0367481C13.7377 0.0379097 13.7394 0.0389642 13.7409 0.0398497C13.7409 0.0398605 13.7409 0.0398714 13.7409 0.0398821L13.7153 0.0248113ZM13.7153 0.0248113C13.7074 0.0205419 13.6988 0.016575 13.6919 0.0133701M13.7153 0.0248113L13.6919 0.0133701M13.6653 0.0561367C13.663 0.0550559 13.6607 0.0539588 13.6584 0.0528621C13.6524 0.0499357 13.6463 0.0470118 13.64 0.0444063C13.6336 0.0417315 13.627 0.0394282 13.6204 0.0371238C13.6182 0.0363657 13.616 0.0356075 13.6139 0.0348359L13.6308 -0.0122227C13.6291 -0.0128295 13.6272 -0.0135196 13.6252 -0.0142624L13.6653 0.0561367ZM13.6653 0.0561367C13.6674 0.057148 13.6696 0.0581449 13.6717 0.0591409M13.6653 0.0561367L13.6717 0.0591409M13.5405 -0.0377611L13.5406 -0.0377466C13.5495 -0.0359781 13.5587 -0.033564 13.5661 -0.0316383C13.5682 -0.0310818 13.5702 -0.0305662 13.572 -0.0301186L13.5597 0.0183477M13.5405 -0.0377611L13.5775 -0.0287608C13.5754 -0.029274 13.5735 -0.0297394 13.5718 -0.0301506L13.5597 0.0183477M13.5405 -0.0377611C13.5311 -0.0396189 13.5212 -0.0409785 13.5131 -0.0420836C13.5109 -0.0423836 13.5089 -0.0426649 13.507 -0.0429324L13.5069 -0.0429445C13.5057 -0.043124 13.5038 -0.0434275 13.5015 -0.0437934C13.4953 -0.0447725 13.4863 -0.0461985 13.4793 -0.04689L13.4792 -0.0468953C13.4586 -0.048896 13.4378 -0.05 13.4168 -0.05H9.33348C8.9837 -0.05 8.70015 0.233546 8.70015 0.583324C8.70015 0.933102 8.9837 1.21665 9.33348 1.21665H11.8878M13.5405 -0.0377611L11.8878 1.21665M13.5597 0.0183477C13.5622 0.0189699 13.5646 0.0195705 13.5671 0.0201714C13.5735 0.0217094 13.5799 0.0232491 13.5862 0.0251563L9.33348 1.16665C9.01131 1.16665 8.75015 0.905488 8.75015 0.583324C8.75015 0.26116 9.01131 0 9.33348 0H13.4168C13.436 0 13.4552 0.00101172 13.4744 0.00287109C13.48 0.0034183 13.4855 0.00429597 13.4909 0.00517307C13.4939 0.00565465 13.4969 0.00613606 13.4999 0.0065625C13.5024 0.00691259 13.5048 0.00724884 13.5073 0.0075851C13.5151 0.00866711 13.523 0.00974928 13.5308 0.011293C13.5381 0.0127425 13.5452 0.0146036 13.5524 0.0164666C13.5548 0.0170987 13.5572 0.0177311 13.5597 0.0183477ZM11.8878 1.21665L7.71899 5.38549C7.47166 5.63282 7.47166 6.03383 7.71899 6.28116C7.96632 6.52849 8.36734 6.52849 8.61466 6.28116L12.7835 2.11235V4.66668C12.7835 5.01645 13.067 5.3 13.4168 5.3C13.7666 5.3 14.0502 5.01646 14.0502 4.66668V0.583379L11.8878 1.21665ZM14.0318 0.434026C14.0312 0.431909 14.0307 0.429947 14.0303 0.428193M14.0318 0.434026L14.0303 0.428193M14.0303 0.428193L13.9818 0.44048M14.0303 0.428193L13.9818 0.44048M13.9818 0.44048L14.0303 0.428318C14.0299 0.426679 14.0294 0.424765 14.0289 0.422659M13.9818 0.44048C13.9824 0.442898 13.983 0.445308 13.9837 0.447718L14.0289 0.422659M14.0289 0.422659C14.0273 0.415983 14.0252 0.407388 14.0229 0.39958L14.0289 0.422659ZM13.6919 0.0133701C13.69 0.0124852 13.6882 0.0116583 13.6866 0.0108993L13.6919 0.0133701ZM13.6717 0.0591409C13.6785 0.0622654 13.6852 0.0653814 13.6918 0.0689062L13.6717 0.0591409ZM14.047 0.520861C14.0463 0.513531 14.0449 0.504809 14.0439 0.498615C14.0436 0.496425 14.0433 0.49455 14.0431 0.493166L14.047 0.520861ZM13.8183 0.0935505C13.8126 0.0888706 13.8054 0.0836679 13.8003 0.0799616L13.8183 0.0935505Z" fill="#6C7080" stroke="#6C7080" stroke-width="0.1"/>
<path d="M0.0935779 13.818C0.0888961 13.8123 0.0836919 13.8051 0.0799853 13.8C0.0786397 13.7982 0.0774915 13.7966 0.0766374 13.7954L0.0766131 13.7954C0.0754436 13.7938 0.0741052 13.7921 0.0726549 13.7902C0.0678695 13.7839 0.0618658 13.776 0.0566917 13.7682C0.0517785 13.7609 0.0469743 13.7527 0.0431799 13.7462C0.0419806 13.7441 0.0408822 13.7423 0.0399131 13.7406L0.0399095 13.7406C0.0390173 13.7392 0.0379512 13.7374 0.0367754 13.7355C0.0332229 13.7297 0.0286697 13.7222 0.0248909 13.7152L0.0248386 13.7151C0.0206423 13.7072 0.0166921 13.6987 0.0135264 13.6919C0.0125959 13.6899 0.0117331 13.688 0.0109518 13.6864C0.0102171 13.6848 0.00934272 13.683 0.00838024 13.681C0.00532975 13.6747 0.00139444 13.6665 -0.00178497 13.6588C-0.00491588 13.6513 -0.00784988 13.6429 -0.0101629 13.6363L0.0935779 13.818ZM0.0935779 13.818C0.106378 13.8336 0.119934 13.8487 0.134309 13.8632L0.0935779 13.818ZM0.259238 13.96C0.257682 13.9591 0.255925 13.958 0.254026 13.9569C0.247471 13.9531 0.239224 13.9483 0.2317 13.9432L0.259238 13.96ZM0.259238 13.96C0.260712 13.9609 0.262434 13.9619 0.264333 13.9631C0.270173 13.9667 0.277686 13.9712 0.284804 13.975L0.284837 13.9751C0.292692 13.9793 0.301214 13.9832 0.308043 13.9864L0.259238 13.96ZM0.0113203 13.5306C0.00977178 13.5228 0.00870656 13.515 0.00764197 13.5072C0.00729669 13.5047 0.00695147 13.5022 0.00658984 13.4997L-0.0428981 13.5068C-0.0430997 13.5054 -0.0434067 13.5035 -0.043767 13.5012C-0.0447558 13.495 -0.0461462 13.4863 -0.0468604 13.479L-0.0377245 13.5403L0.0113203 13.5306ZM0.0113203 13.5306L-0.0377037 13.5404C-0.0377072 13.5404 -0.0377107 13.5403 -0.0377141 13.5403L0.0164822 13.5521C0.0146232 13.545 0.0127668 13.5378 0.0113203 13.5306ZM-0.0141482 13.6251C-0.0134401 13.6271 -0.0127791 13.6289 -0.0121904 13.6305L-0.0141482 13.6251ZM0.0561641 13.665C0.057236 13.6673 0.0582917 13.6695 0.0593474 13.6718C0.062412 13.6784 0.0654761 13.685 0.0689336 13.6915C0.0720037 13.6972 0.0753638 13.7027 0.0787294 13.7082C0.0800998 13.7105 0.0814712 13.7127 0.0828242 13.715C0.0842243 13.7173 0.0856037 13.7197 0.0869834 13.722C0.0906157 13.7282 0.0942507 13.7344 0.0982734 13.7404C0.102519 13.7468 0.107119 13.7529 0.111726 13.7589L0.0561641 13.665ZM0.136554 13.8654C0.15105 13.8798 0.166216 13.8934 0.181861 13.9063L0.213609 13.8677L0.181864 13.9063C0.187605 13.911 0.194801 13.9162 0.19992 13.9199C0.201757 13.9213 0.203327 13.9224 0.204467 13.9233L0.204475 13.9233C0.206043 13.9244 0.207815 13.9258 0.209739 13.9272L0.136554 13.8654ZM0.313557 13.989C0.31512 13.9897 0.316893 13.9905 0.318822 13.9915C0.325202 13.9945 0.333278 13.9984 0.34102 14.0016L0.34107 14.0017C0.348686 14.0048 0.357045 14.0077 0.363669 14.0101C0.365773 14.0108 0.367702 14.0115 0.369376 14.0121L0.369388 14.0121C0.371094 14.0127 0.372986 14.0134 0.375018 14.0141C0.382118 14.0167 0.390924 14.02 0.399481 14.0226L0.399535 14.0226C0.407355 14.0249 0.415978 14.027 0.422671 14.0286C0.424729 14.0291 0.426604 14.0296 0.428218 14.03C0.429971 14.0304 0.431931 14.031 0.434045 14.0315C0.441433 14.0334 0.450708 14.0359 0.459655 14.0376L0.459704 14.0376C0.469008 14.0395 0.4789 14.0408 0.486869 14.0419C0.489154 14.0422 0.491281 14.0425 0.493191 14.0428L0.493277 14.0428C0.494558 14.043 0.496477 14.0433 0.498787 14.0437C0.504945 14.0446 0.51388 14.0461 0.520895 14.0467C0.541539 14.0488 0.562374 14.0499 0.583324 14.0499H4.66668C5.01645 14.0499 5.3 13.7663 5.3 13.4166C5.3 13.0668 5.01645 12.7832 4.66668 12.7832H2.11235L6.28119 8.61439C6.52851 8.36706 6.52851 7.96605 6.28119 7.71872C6.03385 7.47139 5.63284 7.47146 5.38549 7.71877L5.42084 7.75413L5.38549 7.71877L1.21668 11.8876V9.33326C1.21668 8.98348 0.93313 8.69993 0.583352 8.69993C0.233547 8.69993 -0.05 8.98348 -0.05 9.33326V13.4166C-0.05 13.4376 -0.0488963 13.4584 -0.0468612 13.479L0.313557 13.989ZM0.131935 13.8604C0.131362 13.8597 0.131189 13.8595 0.131711 13.8602L0.131774 13.8602C0.131817 13.8603 0.131871 13.8604 0.131935 13.8604Z" fill="#6C7080" stroke="#6C7080" stroke-width="0.1"/>
</g>
<defs>
<clipPath id="clip0_3549_11148">
<rect width="14" height="14" fill="white"/>
</clipPath>
</defs>
</svg>
