<svg width="16" height="16" viewBox="0 0 16 16" fill="none" xmlns="http://www.w3.org/2000/svg">
<path d="M5.14272 4.57143V11.4286H6.85701V4.57143H5.14272ZM4.57129 4.28457C4.57129 4.12743 4.69415 4 4.85586 4H7.14386C7.30101 4 7.42843 4.12571 7.42843 4.28457V11.7154C7.42882 11.7529 7.42172 11.7901 7.40755 11.8248C7.39338 11.8595 7.37244 11.891 7.34594 11.9175C7.31943 11.944 7.28791 11.965 7.25321 11.9791C7.21852 11.9933 7.18134 12.0004 7.14386 12H4.85586C4.81845 12.0002 4.78138 11.9929 4.74678 11.9786C4.71219 11.9644 4.68076 11.9434 4.6543 11.917C4.62785 11.8905 4.60689 11.8591 4.59264 11.8245C4.5784 11.7899 4.57114 11.7528 4.57129 11.7154V4.28457Z" fill="white"/>
<path d="M5.71436 2.28572H6.28578V4.28572H5.71436V2.28572ZM9.71436 3.42858V6.85715H11.4286V3.42858H9.71436ZM9.14293 3.14286C9.14293 2.98515 9.26578 2.85715 9.4275 2.85715H11.7155C11.8726 2.85715 12.0001 2.98858 12.0001 3.14286V7.14286C12.0001 7.30058 11.8772 7.42858 11.7155 7.42858H9.4275C9.35206 7.42783 9.27994 7.39745 9.2267 7.344C9.17346 7.29055 9.14337 7.2183 9.14293 7.14286V3.14286Z" fill="white"/>
<path d="M10.2856 1.14285H10.8571V3.14285H10.2856V1.14285Z" fill="white"/>
</svg>
