<svg width="18" height="18" viewBox="0 0 18 18" fill="none" xmlns="http://www.w3.org/2000/svg">
    <path
        d="M15.335 5.96313C15.1414 5.79666 14.9468 5.63765 14.7518 5.48535L12.4771 7.76C12.6157 8.14766 12.6915 8.565 12.6915 8.99971C12.6915 11.0352 11.0355 12.6911 9.00005 12.6911C8.56535 12.6911 8.14801 12.6154 7.76034 12.4767L6.05322 14.1839C7.05011 14.5928 8.03888 14.8005 9.00005 14.8005C10.1482 14.8005 11.3356 14.5053 12.5292 13.9232C13.4665 13.466 14.4105 12.8311 15.335 12.0363C16.8978 10.6924 17.8606 9.36358 17.9008 9.30764C18.0332 9.12371 18.0332 8.87575 17.9008 8.69178C17.8606 8.63584 16.8978 7.30701 15.335 5.96313Z"
        fill="currentColor" />
    <path
        d="M9.00003 11.6367C10.4539 11.6367 11.6367 10.4539 11.6367 9.00003C11.6367 8.87354 11.6273 8.74922 11.6099 8.62744L8.62744 11.6099C8.74926 11.6273 8.87354 11.6367 9.00003 11.6367Z"
        fill="currentColor" />
    <path
        d="M17.8456 0.154433C17.6397 -0.0514775 17.3058 -0.0514775 17.0998 0.154433L12.9567 4.29753C12.8141 4.2199 12.6716 4.14597 12.5292 4.07653C11.3355 3.49435 10.1481 3.19917 9.00003 3.19917C7.85193 3.19917 6.66453 3.49435 5.4709 4.0765C4.53357 4.53371 3.58955 5.16856 2.66512 5.96337C1.10228 7.30725 0.139491 8.63609 0.0992725 8.69202C-0.0330908 8.87596 -0.0330908 9.12392 0.0992725 9.30789C0.139491 9.36382 1.10224 10.6927 2.66512 12.0365C3.14405 12.4483 3.62826 12.8167 4.11405 13.1401L0.154503 17.0997C-0.0514424 17.3057 -0.0514424 17.6396 0.154503 17.8455C0.257476 17.9485 0.392405 18 0.52737 18C0.662335 18 0.7973 17.9485 0.900237 17.8455L17.8455 0.900167C18.0515 0.694257 18.0515 0.360343 17.8456 0.154433V0.154433ZM5.30862 8.99996C5.30862 6.96451 6.96459 5.30855 9.00003 5.30855C9.82799 5.30855 10.5931 5.58256 11.2096 6.04465L10.453 6.80121C10.0361 6.52474 9.53669 6.36324 9.00003 6.36324C7.54614 6.36324 6.36331 7.54607 6.36331 8.99996C6.36331 9.53658 6.52482 10.036 6.80128 10.453L6.04472 11.2095C5.58263 10.5931 5.30862 9.82792 5.30862 8.99996V8.99996Z"
        fill="currentColor" />
</svg>