<svg width="16" height="16" viewBox="0 0 16 16" fill="none" xmlns="http://www.w3.org/2000/svg">
<path d="M9.71449 6.28571V9.71428H11.4288V6.28571H9.71449ZM9.42878 5.71428H11.7145C11.7903 5.71428 11.8629 5.74438 11.9165 5.79796C11.9701 5.85154 12.0002 5.92422 12.0002 5.99999V9.99999C12.0002 10.0758 11.9701 10.1484 11.9165 10.202C11.8629 10.2556 11.7903 10.2857 11.7145 10.2857H9.42878C9.353 10.2857 9.28033 10.2556 9.22675 10.202C9.17317 10.1484 9.14307 10.0758 9.14307 9.99999V5.99999C9.14307 5.92422 9.17317 5.85154 9.22675 5.79796C9.28033 5.74438 9.353 5.71428 9.42878 5.71428Z" fill="white"/>
<path d="M10.2856 4H10.857V6H10.2856V4ZM10.2856 10H10.857V12H10.2856V10ZM5.14272 4.57143V10.8571H6.857V4.57143H5.14272ZM4.857 4H7.14272C7.21849 4 7.29117 4.0301 7.34475 4.08368C7.39833 4.13727 7.42843 4.20994 7.42843 4.28571V11.1429C7.42843 11.2186 7.39833 11.2913 7.34475 11.3449C7.29117 11.3985 7.21849 11.4286 7.14272 11.4286H4.857C4.78123 11.4286 4.70855 11.3985 4.65497 11.3449C4.60139 11.2913 4.57129 11.2186 4.57129 11.1429V4.28571C4.57129 4.20994 4.60139 4.13727 4.65497 4.08368C4.70855 4.0301 4.78123 4 4.857 4Z" fill="white"/>
<path d="M5.71408 2.28572H6.2855V5.14286H5.71408V2.28572ZM5.71408 10.2857H6.2855V13.1429H5.71408V10.2857ZM4.85693 5.14286H5.71408V5.71429H4.85693V5.14286ZM6.2855 5.14286H7.14265V5.71429H6.2855V5.14286ZM5.71408 5.71429H6.2855V6.28572H5.71408V5.71429ZM4.85693 6.28572H5.71408V6.85715H4.85693V6.28572ZM6.2855 6.28572H7.14265V6.85715H6.2855V6.28572ZM5.71408 6.85715H6.2855V7.42858H5.71408V6.85715ZM4.85693 7.42858H5.71408V8.00001H4.85693V7.42858ZM6.2855 7.42858H7.14265V8.00001H6.2855V7.42858ZM5.71408 8.00001H6.2855V8.57144H5.71408V8.00001ZM4.85693 8.57144H5.71408V9.14286H4.85693V8.57144ZM6.2855 8.57144H7.14265V9.14286H6.2855V8.57144ZM5.71408 9.14286H6.2855V9.71429H5.71408V9.14286ZM4.85693 9.71429H5.71408V10.2857H4.85693V9.71429ZM6.2855 9.71429H7.14265V10.2857H6.2855V9.71429Z" fill="white"/>
</svg>
