<svg width="16" height="16" viewBox="0 0 16 16" fill="none" xmlns="http://www.w3.org/2000/svg">
    <path d="M9.06911 11.2728C8.90553 11.2881 8.74132 11.2511 8.60001 11.1673C8.54904 11.115 8.51048 11.0519 8.4872 10.9827C8.46391 10.9134 8.45649 10.8398 8.46548 10.7673C8.46929 10.6451 8.48389 10.5234 8.5091 10.4037C8.53351 10.2664 8.56504 10.1305 8.60364 9.99643L9.03273 8.52006C9.07698 8.37433 9.10623 8.22445 9.12001 8.07278C9.12001 7.90915 9.14182 7.7964 9.14182 7.73096C9.14633 7.58699 9.11825 7.44387 9.05969 7.31227C9.00113 7.18067 8.9136 7.064 8.80364 6.97096C8.5296 6.76059 8.18835 6.65718 7.84364 6.68006C7.5966 6.68377 7.35149 6.72422 7.11636 6.80006C6.85939 6.88006 6.58907 6.97581 6.30545 7.08734L6.18182 7.56734C6.26545 7.53825 6.36729 7.50553 6.48364 7.46915C6.59463 7.43627 6.70969 7.41913 6.82545 7.41825C6.98783 7.40065 7.15125 7.44053 7.28726 7.53096C7.33298 7.58552 7.36718 7.64876 7.3878 7.71688C7.40842 7.785 7.41504 7.85659 7.40726 7.92734C7.40686 8.04962 7.39345 8.17152 7.36726 8.29097C7.34179 8.41825 7.30907 8.55278 7.26907 8.69459L6.83636 10.1782C6.80148 10.3161 6.77357 10.4557 6.75273 10.5964C6.73574 10.7169 6.72723 10.8384 6.72726 10.96C6.72639 11.1049 6.7587 11.2481 6.82173 11.3786C6.88476 11.5091 6.97683 11.6234 7.09089 11.7127C7.36915 11.9264 7.71524 12.0323 8.06542 12.0109C8.31199 12.016 8.55772 11.9804 8.7927 11.9055C8.99876 11.8352 9.27392 11.7346 9.61817 11.6037L9.73454 11.1455C9.64129 11.1841 9.54526 11.2157 9.44726 11.24C9.32332 11.2683 9.19607 11.2793 9.06911 11.2728ZM9.52364 4.27281C9.32573 4.09106 9.06497 3.99327 8.79636 4.00009C8.52787 3.99403 8.26738 4.09171 8.06907 4.27281C7.70557 4.58625 7.66498 5.13503 7.97845 5.49856C8.00638 5.53096 8.03667 5.56125 8.06907 5.58918C8.4832 5.95959 9.10951 5.95959 9.52361 5.58918C9.88711 5.27265 9.9252 4.7214 9.60867 4.3579C9.58233 4.3276 9.55392 4.29917 9.52364 4.27281Z" fill="currentColor"/>
    <path d="M8 0C3.58172 0 0 3.58172 0 8C0 12.4183 3.58172 16 8 16C12.4183 16 16 12.4183 16 8C16 3.58172 12.4183 0 8 0ZM8 15.2727C3.98338 15.2727 0.727281 12.0166 0.727281 8C0.727281 3.98338 3.98338 0.727281 8 0.727281C12.0166 0.727281 15.2727 3.98338 15.2727 8C15.2727 12.0166 12.0166 15.2727 8 15.2727Z" fill="currentColor"/>
</svg>