<svg width="20" height="20" viewBox="0 0 20 20" fill="none" xmlns="http://www.w3.org/2000/svg">
<path d="M7.05398 5.87492C7.13146 5.95229 7.19295 6.04416 7.23492 6.14529C7.27689 6.24643 7.29854 6.35483 7.29861 6.46433C7.29869 6.57383 7.2772 6.68226 7.23537 6.78345C7.19354 6.88464 7.13219 6.97661 7.05482 7.05409C6.97745 7.13157 6.88557 7.19305 6.78444 7.23502C6.68331 7.277 6.5749 7.29864 6.46541 7.29872C6.35591 7.29879 6.24747 7.2773 6.14628 7.23547C6.04509 7.19364 5.95313 7.13229 5.87565 7.05492L3.51898 4.69659C3.43759 4.62015 3.37238 4.52813 3.32724 4.426C3.2821 4.32387 3.25794 4.2137 3.25621 4.10205C3.25448 3.99041 3.2752 3.87955 3.31715 3.77606C3.35909 3.67258 3.42141 3.57858 3.5004 3.49965C3.57938 3.42072 3.67342 3.35847 3.77694 3.3166C3.88045 3.27472 3.99132 3.25408 4.10297 3.25589C4.21462 3.2577 4.32477 3.28194 4.42687 3.32715C4.52897 3.37236 4.62094 3.43763 4.69732 3.51909L7.05398 5.87492ZM15.304 3.51825L12.9473 5.87492C12.8677 5.95179 12.8042 6.04375 12.7606 6.14542C12.7169 6.24709 12.6939 6.35643 12.6929 6.46708C12.692 6.57773 12.7131 6.68747 12.755 6.78988C12.7969 6.89229 12.8587 6.98534 12.937 7.06358C13.0152 7.14183 13.1083 7.2037 13.2107 7.2456C13.3131 7.2875 13.4228 7.30859 13.5335 7.30763C13.6441 7.30667 13.7535 7.28368 13.8552 7.24C13.9568 7.19633 14.0488 7.13284 14.1257 7.05325L16.4823 4.69492C16.5637 4.61848 16.6289 4.52646 16.6741 4.42433C16.7192 4.3222 16.7434 4.21204 16.7451 4.10039C16.7468 3.98874 16.7261 3.87788 16.6842 3.7744C16.6422 3.67091 16.5799 3.57691 16.5009 3.49798C16.4219 3.41905 16.3279 3.3568 16.2244 3.31493C16.1209 3.27305 16.01 3.25241 15.8983 3.25422C15.7867 3.25604 15.6765 3.28027 15.5744 3.32548C15.4723 3.3707 15.3804 3.4368 15.304 3.51825ZM5.83398 9.99992C5.83398 9.7789 5.74619 9.56694 5.58991 9.41066C5.43363 9.25438 5.22166 9.16659 5.00065 9.16659H1.66732C1.4463 9.16659 1.23434 9.25438 1.07806 9.41066C0.921782 9.56694 0.833984 9.7789 0.833984 9.99992C0.833984 10.2209 0.921782 10.4329 1.07806 10.5892C1.23434 10.7455 1.4463 10.8333 1.66732 10.8333H5.00065C5.22166 10.8333 5.43363 10.7455 5.58991 10.5892C5.74619 10.4329 5.83398 10.2209 5.83398 9.99992ZM5.87565 12.9458L3.51898 15.3041C3.43759 15.3805 3.37238 15.4725 3.32724 15.5747C3.2821 15.6768 3.25794 15.787 3.25621 15.8986C3.25448 16.0103 3.2752 16.1211 3.31715 16.2246C3.35909 16.3281 3.42141 16.4221 3.5004 16.501C3.57938 16.58 3.67342 16.6422 3.77694 16.6841C3.88045 16.726 3.99132 16.7466 4.10297 16.7448C4.21462 16.743 4.32477 16.7187 4.42687 16.6735C4.52897 16.6283 4.62094 16.563 4.69732 16.4816L7.05398 14.1241C7.13358 14.0472 7.19706 13.9553 7.24074 13.8536C7.28441 13.7519 7.3074 13.6426 7.30836 13.5319C7.30932 13.4213 7.28824 13.3115 7.24634 13.2091C7.20443 13.1067 7.14256 13.0137 7.06431 12.9354C6.98607 12.8572 6.89303 12.7953 6.79061 12.7534C6.6882 12.7115 6.57847 12.6904 6.46782 12.6914C6.35717 12.6923 6.24782 12.7153 6.14615 12.759C6.04448 12.8027 5.95252 12.8662 5.87565 12.9458ZM10.0007 0.833252C9.77964 0.833252 9.56768 0.921049 9.4114 1.07733C9.25512 1.23361 9.16732 1.44557 9.16732 1.66659V4.99992C9.16732 5.22093 9.25512 5.43289 9.4114 5.58917C9.56768 5.74545 9.77964 5.83325 10.0007 5.83325C10.2217 5.83325 10.4336 5.74545 10.5899 5.58917C10.7462 5.43289 10.834 5.22093 10.834 4.99992V1.66659C10.834 1.44557 10.7462 1.23361 10.5899 1.07733C10.4336 0.921049 10.2217 0.833252 10.0007 0.833252Z" fill="#E6A80F"/>
<path opacity="0.3" d="M16.483 15.3032C16.5626 15.38 16.626 15.472 16.6697 15.5737C16.7134 15.6753 16.7364 15.7847 16.7373 15.8953C16.7383 16.006 16.7172 16.1157 16.6753 16.2181C16.6334 16.3205 16.5715 16.4136 16.4933 16.4918C16.4151 16.5701 16.322 16.632 16.2196 16.6739C16.1172 16.7158 16.0075 16.7368 15.8968 16.7359C15.7862 16.7349 15.6768 16.7119 15.5751 16.6683C15.4735 16.6246 15.3815 16.5611 15.3046 16.4815L12.948 14.124C12.8684 14.0471 12.8049 13.9552 12.7612 13.8535C12.7175 13.7518 12.6946 13.6425 12.6936 13.5318C12.6926 13.4212 12.7137 13.3115 12.7556 13.209C12.7975 13.1066 12.8594 13.0136 12.9376 12.9353C13.0159 12.8571 13.1089 12.7952 13.2113 12.7533C13.3138 12.7114 13.4235 12.6903 13.5341 12.6913C13.6448 12.6923 13.7541 12.7152 13.8558 12.7589C13.9575 12.8026 14.0494 12.8661 14.1263 12.9457L16.483 15.3032ZM18.3346 9.1665H15.0013C14.7803 9.1665 14.5683 9.2543 14.412 9.41058C14.2558 9.56686 14.168 9.77882 14.168 9.99984C14.168 10.2209 14.2558 10.4328 14.412 10.5891C14.5683 10.7454 14.7803 10.8332 15.0013 10.8332H18.3346C18.5556 10.8332 18.7676 10.7454 18.9239 10.5891C19.0802 10.4328 19.168 10.2209 19.168 9.99984C19.168 9.77882 19.0802 9.56686 18.9239 9.41058C18.7676 9.2543 18.5556 9.1665 18.3346 9.1665ZM10.0013 14.1665C9.78029 14.1665 9.56833 14.2543 9.41205 14.4106C9.25577 14.5669 9.16797 14.7788 9.16797 14.9998V18.3332C9.16797 18.5542 9.25577 18.7661 9.41205 18.9224C9.56833 19.0787 9.78029 19.1665 10.0013 19.1665C10.2223 19.1665 10.4343 19.0787 10.5906 18.9224C10.7468 18.7661 10.8346 18.5542 10.8346 18.3332V14.9998C10.8346 14.7788 10.7468 14.5669 10.5906 14.4106C10.4343 14.2543 10.2223 14.1665 10.0013 14.1665Z" fill="#E6A80F"/>
</svg>
