<svg width="133" height="30" viewBox="0 0 133 30" fill="none" xmlns="http://www.w3.org/2000/svg">
<path fill-rule="evenodd" clip-rule="evenodd" d="M132.54 0L131.146 10.7436L128.161 7.7398L113.083 22.3214L104.987 12.2234V15.0053V29.5901H99.8507V14.095V6.12978V6.11788H101.719L105.509 6.09374L113.083 15.836L124.958 4.51745L121.788 1.32705L132.54 0ZM121.178 17.7941L126.271 12.8757V29.5461H121.178V17.7941ZM57.0469 29.9993C55.1914 29.9993 53.4813 29.7087 51.9165 29.1275C50.3741 28.5239 49.0216 27.6745 47.8592 26.5791C46.7191 25.4837 45.8249 24.1983 45.1766 22.723C44.5507 21.2476 44.2378 19.6269 44.2378 17.8609C44.2378 16.0948 44.5507 14.4741 45.1766 12.9988C45.8249 11.5234 46.7303 10.238 47.8927 9.14261C49.0551 8.04724 50.4188 7.20894 51.9836 6.62773C53.5484 6.02416 55.2697 5.72237 57.1475 5.72237C59.2264 5.72237 61.093 6.06887 62.7473 6.76186C64.4238 7.45484 65.8322 8.4608 66.9723 9.77971L63.485 12.9988C62.6355 12.1046 61.7078 11.4451 60.7018 11.0204C59.6959 10.5733 58.6005 10.3498 57.4157 10.3498C56.2756 10.3498 55.2362 10.5286 54.2973 10.8863C53.3584 11.2439 52.5424 11.7581 51.8495 12.4287C51.1788 13.0993 50.6535 13.8929 50.2735 14.8095C49.9158 15.726 49.737 16.7431 49.737 17.8609C49.737 18.9562 49.9158 19.9622 50.2735 20.8787C50.6535 21.7952 51.1788 22.6 51.8495 23.293C52.5424 23.9636 53.3472 24.4778 54.2637 24.8354C55.2026 25.1931 56.2309 25.372 57.3487 25.372C58.4217 25.372 59.4612 25.2043 60.4671 24.869C60.8404 24.7391 61.2092 24.5784 61.5737 24.3867V17.492H66.5363V27.015C65.2621 27.9763 63.7756 28.7139 62.0766 29.2281C60.4 29.7423 58.7235 29.9993 57.0469 29.9993ZM0 6.12475V29.597H17.2018V25.1708H5.43214V6.12475H0ZM27.7449 6.12475L17.283 29.597H22.8492L24.9409 24.5672H35.8215L37.905 29.597H43.6054L33.1099 6.12475H27.7449ZM34.113 20.4428L30.3918 11.4596L26.6561 20.4428H34.113ZM77.8192 29.094C79.4064 29.6975 81.1277 29.9993 82.9831 29.9993C84.8162 29.9993 86.504 29.6975 88.0464 29.094C89.6112 28.4904 90.9637 27.6521 92.1037 26.5791C93.2662 25.4837 94.1715 24.1983 94.8198 22.723C95.4681 21.2252 95.7922 19.6045 95.7922 17.8609C95.7922 16.0948 95.4681 14.4853 94.8198 13.0323C94.1715 11.5569 93.2662 10.2715 92.1037 9.17614C90.9637 8.08077 89.6112 7.2313 88.0464 6.62773C86.504 6.02416 84.805 5.72237 82.9496 5.72237C81.1165 5.72237 79.4176 6.02416 77.8528 6.62773C76.288 7.2313 74.9243 8.08077 73.7619 9.17614C72.5995 10.2715 71.6941 11.5569 71.0458 13.0323C70.4199 14.5077 70.1069 16.1172 70.1069 17.8609C70.1069 19.6045 70.4199 21.214 71.0458 22.6894C71.6941 24.1648 72.5883 25.4502 73.7284 26.5456C74.8908 27.6409 76.2544 28.4904 77.8192 29.094ZM85.8333 24.8354C84.9615 25.1931 84.0003 25.372 82.9496 25.372C81.8989 25.372 80.9265 25.1931 80.0323 24.8354C79.1382 24.4778 78.3558 23.9636 77.6851 23.293C77.0368 22.6224 76.5227 21.8288 76.1427 20.9122C75.785 19.9734 75.6061 18.9562 75.6061 17.8609C75.6061 16.7431 75.785 15.726 76.1427 14.8095C76.5227 13.8929 77.048 13.0993 77.7186 12.4287C78.3893 11.7581 79.1605 11.2439 80.0323 10.8863C80.9265 10.5286 81.8989 10.3498 82.9496 10.3498C84.0003 10.3498 84.9727 10.5286 85.8669 10.8863C86.761 11.2439 87.5323 11.7581 88.1805 12.4287C88.8512 13.0993 89.3653 13.8929 89.723 14.8095C90.103 15.726 90.293 16.7431 90.293 17.8609C90.293 18.9786 90.103 19.9957 89.723 20.9122C89.3653 21.8288 88.8512 22.6224 88.1805 23.293C87.5099 23.9636 86.7275 24.4778 85.8333 24.8354Z" fill="url(#paint0_linear_6413_7199)"/>
<defs>
<linearGradient id="paint0_linear_6413_7199" x1="6.61847" y1="30.0322" x2="35.8976" y2="-38.9215" gradientUnits="userSpaceOnUse">
<stop stop-color="#5367FE"/>
<stop offset="0.427092" stop-color="#5C7AFD"/>
<stop offset="1" stop-color="#85BEFF"/>
</linearGradient>
</defs>
</svg>
