<svg width="88" height="76" viewBox="0 0 88 76" fill="none" xmlns="http://www.w3.org/2000/svg">
<path d="M16.4804 38.1172V1.60938C16.4804 1.19497 16.645 0.797547 16.938 0.504521C17.231 0.211495 17.6285 0.046875 18.0429 0.046875H53.2835L71.1679 19.8781V44.8047C71.1679 44.8047 71.1741 46.7031 71.0163 49.6219L62.2179 46.4297C61.7009 46.2423 61.1437 46.1946 60.6024 46.2914C60.0611 46.3883 59.5549 46.6262 59.135 46.9813L54.3975 50.9859C54.0057 51.3173 53.5383 51.5471 53.0366 51.655C52.535 51.763 52.0144 51.7457 51.521 51.6047L42.1866 48.9375L51.2007 55.3766C51.7544 55.772 52.4221 55.976 53.1023 55.9574C53.7826 55.9387 54.4381 55.6986 54.9694 55.2734L59.5491 51.6094C59.9721 51.2715 60.4754 51.0492 61.01 50.964C61.5446 50.8788 62.0921 50.9337 62.5991 51.1234L70.6866 54.1562C70.0663 60.8969 68.6413 69.7359 65.3772 75.2234C65.2366 75.4455 65.0421 75.6284 64.8118 75.7552C64.5815 75.8819 64.3229 75.9484 64.06 75.9484C58.0804 75.9531 22.5788 75.9531 12.6554 75.9531C12.3859 75.9528 12.1212 75.8828 11.8868 75.75C11.6524 75.6171 11.4563 75.4259 11.3176 75.1949C11.1789 74.9639 11.1023 74.701 11.0953 74.4317C11.0882 74.1624 11.1509 73.8958 11.2772 73.6578C16.1257 63.1297 16.4804 44.8047 16.4804 44.8047V42.7562L23.3366 40.1859C23.8433 39.9961 24.3906 39.941 24.925 40.0262C25.4594 40.1114 25.9625 40.3339 26.385 40.6719L30.9663 44.3359C31.4976 44.7611 32.1531 45.0012 32.8334 45.0199C33.5136 45.0385 34.1813 44.8345 34.735 44.4391L43.7491 38L34.4147 40.6672C33.9213 40.8082 33.4008 40.8255 32.8991 40.7175C32.3974 40.6096 31.93 40.3798 31.5382 40.0484L26.8007 36.0437C26.3808 35.6887 25.8746 35.4508 25.3333 35.3539C24.7921 35.2571 24.2348 35.3048 23.7179 35.4922L16.4804 38.1172Z" fill="#A4A7B7"/>
<path d="M69.9052 53.8643L70.688 54.1768C70.0677 60.9174 68.6427 69.7643 65.3771 75.2549C65.2364 75.477 65.0419 75.6599 64.8116 75.7866C64.5814 75.9134 64.3228 75.9799 64.0599 75.9799C58.0802 75.9846 22.5786 75.9846 12.6552 75.9846C12.3856 75.9844 12.1206 75.9144 11.886 75.7815C11.6514 75.6486 11.4551 75.4572 11.3164 75.226C11.1777 74.9948 11.1012 74.7316 11.0943 74.462C11.0874 74.1925 11.1504 73.9257 11.2771 73.6877L11.338 73.5533C30.5786 74.458 58.5193 71.0877 62.199 69.6471C64.9333 68.5768 68.1646 61.108 69.9052 53.8643Z" fill="#6C7080"/>
<path d="M71.1676 19.8781C66.4254 18.0047 61.402 17.9516 56.2473 18.7484C56.0111 18.7855 55.7696 18.7678 55.5415 18.6965C55.3133 18.6253 55.1046 18.5026 54.9315 18.3378C54.7584 18.173 54.6255 17.9705 54.5431 17.7461C54.4608 17.5217 54.4312 17.2814 54.4566 17.0437C55.0223 11.2719 54.452 5.625 53.2832 0.046875C60.8426 5.65781 66.8129 12.2641 71.1676 19.8781Z" fill="#6C7080"/>
<path d="M3.49687 25.1532L11.3094 34.325C11.4423 34.4812 11.6047 34.6096 11.7873 34.703C11.9699 34.7964 12.1691 34.8529 12.3736 34.8693C12.578 34.8857 12.7837 34.8616 12.9788 34.7986C13.174 34.7355 13.3548 34.6346 13.5109 34.5016C13.6671 34.3686 13.7955 34.2062 13.8889 34.0236C13.9823 33.841 14.0388 33.6418 14.0552 33.4374C14.0716 33.233 14.0475 33.0273 13.9844 32.8321C13.9214 32.637 13.8205 32.4562 13.6875 32.3L5.87499 23.1282C5.74434 22.9647 5.58217 22.8291 5.39811 22.7294C5.21405 22.6298 5.01185 22.5681 4.80351 22.5482C4.59517 22.5282 4.38494 22.5502 4.18529 22.6131C3.98565 22.6759 3.80066 22.7782 3.6413 22.9139C3.48195 23.0496 3.35148 23.2159 3.25764 23.403C3.16381 23.59 3.10851 23.7941 3.09504 24.0029C3.08157 24.2118 3.11019 24.4212 3.17922 24.6188C3.24825 24.8164 3.35627 24.9981 3.49687 25.1532Z" fill="#A4A7B7"/>
<path d="M3.58183 38.7874L9.12714 40.2733C9.52745 40.3807 9.954 40.3246 10.313 40.1174C10.6719 39.9102 10.9339 39.569 11.0412 39.1686C11.1485 38.7683 11.0924 38.3418 10.8853 37.9828C10.6781 37.6239 10.3368 37.3619 9.93652 37.2546L4.3912 35.7686C3.99089 35.6613 3.56434 35.7174 3.20539 35.9246C2.84643 36.1317 2.58447 36.473 2.47714 36.8733C2.36981 37.2736 2.4259 37.7002 2.63307 38.0592C2.84024 38.4181 3.18152 38.6801 3.58183 38.7874Z" fill="#A4A7B7"/>
<path d="M2.84552 51.6391L13.2799 45.6141C13.6358 45.4054 13.8948 45.0644 14.0003 44.6655C14.1057 44.2666 14.0491 43.8422 13.8428 43.4849C13.6365 43.1275 13.2972 42.8663 12.8991 42.7582C12.5009 42.6501 12.0761 42.7039 11.7174 42.9078L1.28302 48.9328C0.927073 49.1415 0.668112 49.4825 0.562649 49.8814C0.457186 50.2803 0.513784 50.7047 0.720092 51.062C0.926399 51.4193 1.26567 51.6806 1.66386 51.7887C2.06205 51.8968 2.48684 51.843 2.84552 51.6391Z" fill="#A4A7B7"/>
<path d="M84.5033 68.0221L76.6908 58.8502C76.4196 58.5434 76.0388 58.3553 75.6303 58.3264C75.2218 58.2975 74.8183 58.4301 74.5066 58.6957C74.195 58.9613 74 59.3387 73.9637 59.7466C73.9275 60.1545 74.0528 60.5603 74.3127 60.8768L82.1252 70.0486C82.3964 70.3555 82.7772 70.5436 83.1857 70.5725C83.5942 70.6013 83.9977 70.4687 84.3094 70.2031C84.6211 69.9375 84.816 69.5601 84.8523 69.1522C84.8886 68.7443 84.7633 68.3385 84.5033 68.0221ZM84.419 54.3893L78.8736 52.9033C78.6754 52.8502 78.4687 52.8366 78.2652 52.8633C78.0618 52.8901 77.8656 52.9567 77.6878 53.0592C77.5101 53.1618 77.3543 53.2984 77.2293 53.4612C77.1044 53.624 77.0127 53.8098 76.9596 54.008C76.9064 54.2062 76.8929 54.413 76.9196 54.6164C76.9464 54.8199 77.0129 55.0161 77.1155 55.1938C77.2181 55.3716 77.3547 55.5274 77.5175 55.6523C77.6802 55.7773 77.8661 55.8689 78.0643 55.9221L83.6096 57.408C84.0099 57.5153 84.4364 57.4592 84.7954 57.2521C85.1544 57.0449 85.4163 56.7036 85.5236 56.3033C85.631 55.903 85.5749 55.4765 85.3677 55.1175C85.1605 54.7585 84.8193 54.4966 84.419 54.3893ZM85.1549 41.5377L74.7205 47.5611C74.3646 47.7698 74.1056 48.1108 74.0001 48.5097C73.8947 48.9086 73.9513 49.333 74.1576 49.6903C74.3639 50.0477 74.7032 50.3089 75.1014 50.417C75.4995 50.5251 75.9243 50.4713 76.283 50.2674L86.7174 44.2439C87.0733 44.0353 87.3323 43.6943 87.4378 43.2954C87.5432 42.8965 87.4866 42.4721 87.2803 42.1147C87.074 41.7574 86.7347 41.4962 86.3366 41.3881C85.9384 41.28 85.5136 41.3338 85.1549 41.5377Z" fill="#A4A7B7"/>
<path d="M25.0372 14.4063L30.5622 19.9313C30.8554 20.2243 31.253 20.3888 31.6675 20.3886C32.082 20.3885 32.4794 20.2237 32.7724 19.9305C33.0654 19.6373 33.2299 19.2397 33.2297 18.8253C33.2296 18.4108 33.0648 18.0133 32.7716 17.7204L27.2466 12.1969C26.9519 11.9123 26.5572 11.7548 26.1476 11.7584C25.7379 11.7619 25.346 11.9262 25.0563 12.2159C24.7666 12.5056 24.6023 12.8975 24.5987 13.3072C24.5951 13.7169 24.7526 14.1116 25.0372 14.4063Z" fill="black"/>
<path d="M30.5622 12.1969L25.0372 17.7204C24.744 18.0133 24.5792 18.4108 24.5791 18.8253C24.579 19.2397 24.7435 19.6373 25.0365 19.9305C25.3294 20.2237 25.7269 20.3885 26.1414 20.3886C26.5559 20.3888 26.9534 20.2243 27.2466 19.9313L32.7716 14.4063C33.0562 14.1116 33.2137 13.7169 33.2102 13.3072C33.2066 12.8975 33.0423 12.5056 32.7526 12.2159C32.4629 11.9262 32.071 11.7619 31.6613 11.7584C31.2516 11.7548 30.8569 11.9123 30.5622 12.1969ZM42.2247 14.4063L47.7497 19.9313C48.0429 20.2243 48.4405 20.3888 48.855 20.3886C49.2695 20.3885 49.6669 20.2237 49.9599 19.9305C50.2529 19.6373 50.4174 19.2397 50.4172 18.8253C50.4171 18.4108 50.2523 18.0133 49.9591 17.7204L44.4341 12.1969C44.1394 11.9123 43.7447 11.7548 43.335 11.7584C42.9254 11.7619 42.5335 11.9262 42.2438 12.2159C41.9541 12.5056 41.7897 12.8975 41.7862 13.3072C41.7826 13.7169 41.9401 14.1116 42.2247 14.4063Z" fill="black"/>
<path d="M47.7494 12.1969L42.2244 17.7203C41.9312 18.0133 41.7664 18.4108 41.7663 18.8253C41.7662 19.2397 41.9307 19.6373 42.2236 19.9305C42.5166 20.2237 42.9141 20.3885 43.3286 20.3886C43.743 20.3888 44.1406 20.2243 44.4338 19.9313L49.9588 14.4063C50.2434 14.1116 50.4009 13.7169 50.3974 13.3072C50.3938 12.8975 50.2295 12.5056 49.9398 12.2159C49.6501 11.9262 49.2582 11.7619 48.8485 11.7584C48.4388 11.7548 48.0441 11.9123 47.7494 12.1969ZM29.0588 29.2641L31.251 27.6219L33.4338 29.2625C33.7044 29.4658 34.0337 29.5756 34.3721 29.5756C34.7105 29.5756 35.0398 29.4658 35.3104 29.2625L37.4979 27.6219L39.6854 29.2625C39.9557 29.4656 40.2847 29.5754 40.6229 29.5754C40.961 29.5754 41.29 29.4656 41.5604 29.2625L43.7479 27.6219L45.9354 29.2625C46.0995 29.3857 46.2863 29.4752 46.4851 29.5262C46.6839 29.5771 46.8907 29.5884 47.0938 29.5593C47.297 29.5303 47.4924 29.4616 47.6689 29.357C47.8455 29.2525 47.9998 29.1142 48.1229 28.95C48.246 28.7859 48.3356 28.5991 48.3865 28.4003C48.4374 28.2015 48.4487 27.9947 48.4197 27.7916C48.3906 27.5884 48.3219 27.393 48.2174 27.2165C48.1128 27.0399 47.9745 26.8857 47.8104 26.7625L44.6869 24.4188C44.4163 24.2164 44.0874 24.1071 43.7494 24.1071C43.4115 24.1071 43.0826 24.2164 42.8119 24.4188L40.6229 26.0594L38.4354 24.4188C38.1647 24.2164 37.8358 24.1071 37.4979 24.1071C37.1599 24.1071 36.831 24.2164 36.5604 24.4188L34.3729 26.0594L32.1916 24.4204C31.9214 24.217 31.5925 24.107 31.2544 24.1067C30.9162 24.1064 30.5871 24.2159 30.3166 24.4188L27.1869 26.7625C26.8553 27.011 26.6358 27.3809 26.5766 27.791C26.5174 28.2011 26.6234 28.618 26.8713 28.95C27.3885 29.6391 28.3682 29.7813 29.0588 29.2641Z" fill="black"/>
</svg>
