<svg width="161" height="160" viewBox="0 0 161 160" fill="none" xmlns="http://www.w3.org/2000/svg">
<g id="Isolation_Mode" clip-path="url(#clip0_6470_14473)">
<g id="Group">
<g id="Group_2">
<path id="Vector" d="M5.66072 79.9785C5.66072 38.7659 39.0747 5.5332 80.1061 5.5332C121.137 5.5332 154.551 38.7413 154.551 79.9785C154.551 97.4725 148.514 113.56 138.405 126.263C124.457 143.856 103.164 154.425 80.1045 154.425C57.0452 154.425 35.7241 143.79 21.7929 126.263C11.6842 113.562 5.65918 97.474 5.65918 79.9785H5.66072Z" fill="#1D2132"/>
<path id="Vector_2" d="M7.06327 22.5696C4.87142 21.6737 2.35417 22.7543 1.45831 24.9462C0.562458 27.138 1.61319 29.6418 3.80504 30.5377C5.99689 31.4335 8.52995 30.3945 9.42757 28.2021C10.3234 26.0102 9.25454 23.4637 7.06269 22.5678L7.06327 22.5696Z" fill="#5367FE"/>
<path id="Vector_3" d="M15.2603 15.9199C13.8643 15.3504 12.2642 16.0376 11.6924 17.4325C11.1229 18.8285 11.7919 20.421 13.1862 20.9911C14.5823 21.5606 16.1935 20.9009 16.7647 19.5043C17.3342 18.1082 16.654 16.4882 15.2598 15.9181L15.2603 15.9199Z" fill="#5367FE"/>
</g>
<g id="Group_3">
<path id="Vector_4" d="M138.029 42.407V143.292C138.029 149.446 133.051 154.424 126.896 154.424H35.3399C29.1858 154.424 24.2075 149.446 24.2075 143.292V16.6656C24.2075 10.5115 29.1858 5.5332 35.3399 5.5332H98.8527C99.4336 5.5332 100.004 5.57931 100.562 5.66077C102.714 5.99737 104.738 6.96413 106.365 8.46423L134.422 34.2056C136.097 35.7411 137.248 37.7422 137.737 39.9171C137.935 40.7317 138.027 41.557 138.027 42.407H138.029Z" fill="#2C3046"/>
<path id="Vector_5" d="M137.737 39.9184H105.951C102.975 39.9184 100.562 37.5053 100.562 34.5297V5.66211C102.714 5.99871 104.738 6.96547 106.366 8.46557L134.422 34.207C136.097 35.7424 137.248 37.7436 137.737 39.9184Z" fill="url(#paint0_linear_6470_14473)"/>
</g>
<path id="Vector_6" d="M103.025 101.205C92.016 112.205 74.1747 112.205 63.1745 101.205C52.1651 90.1952 52.1651 72.3631 63.1745 61.3537C74.1747 50.3535 92.016 50.3535 103.025 61.3537C114.026 72.3631 114.026 90.1952 103.025 101.205Z" fill="white"/>
<path id="Vector_7" d="M57.3526 55.5313C43.1325 69.7515 43.1325 92.8032 57.3526 107.023C71.5728 121.244 94.6245 121.244 108.845 107.023C123.065 92.8032 123.065 69.7515 108.845 55.5313C94.6245 41.3112 71.5728 41.3112 57.3526 55.5313ZM101.696 99.8749C91.4229 110.148 74.7728 110.148 64.5011 99.8749C54.2279 89.6017 54.2279 72.9531 64.5011 62.6799C74.7743 52.4067 91.4229 52.4067 101.696 62.6799C111.969 72.9531 111.969 89.6032 101.696 99.8749Z" fill="#5367FE"/>
<path id="Vector_8" d="M120.016 111.304L113.13 118.189L105.162 110.232C107.813 108.231 110.199 105.812 112.06 103.347L120.017 111.304H120.016Z" fill="#5367FE"/>
<path id="Vector_9" d="M125.177 110.136L140.588 125.547C144.238 129.197 144.238 135.118 140.588 138.768C136.938 142.419 131.017 142.419 127.367 138.768L111.956 123.357C110.857 122.258 110.857 120.475 111.956 119.376L121.196 110.136C122.295 109.037 124.078 109.037 125.177 110.136Z" fill="#5367FE"/>
<path id="Vector_10" d="M86.4015 87.6077C85.7591 87.6077 85.238 87.0867 85.238 86.4442C85.238 83.8652 81.3387 83.8652 81.3387 86.4442C81.3387 87.0867 80.8177 87.6077 80.1752 87.6077C79.5328 87.6077 79.0117 87.0867 79.0117 86.4442C79.0117 80.785 87.565 80.7912 87.565 86.4442C87.565 87.0867 87.044 87.6077 86.4015 87.6077Z" fill="#5367FE"/>
<g id="Group_4">
<path id="Vector_11" d="M96.3105 77.7264H91.4828C90.8404 77.7264 90.3193 77.2054 90.3193 76.5629C90.3193 75.9205 90.8388 75.3994 91.4828 75.3994H96.3105C96.953 75.3994 97.474 75.9205 97.474 76.5629C97.474 77.2054 96.9545 77.7264 96.3105 77.7264Z" fill="#5367FE"/>
<path id="Vector_12" d="M75.0907 77.7264H70.2646C69.6221 77.7264 69.1011 77.2054 69.1011 76.5629C69.1011 75.9205 69.6221 75.3994 70.2646 75.3994H75.0907C75.7332 75.3994 76.2542 75.9205 76.2542 76.5629C76.2542 77.2054 75.7332 77.7264 75.0907 77.7264Z" fill="#5367FE"/>
</g>
</g>
<g id="Group 1171275147">
<path id="Vector_13" d="M83.9734 17.6719H44.7926C44.5609 17.6719 44.373 17.8597 44.373 18.0915V22.1537C44.373 22.3855 44.5609 22.5733 44.7926 22.5733H83.9734C84.2052 22.5733 84.393 22.3855 84.393 22.1537V18.0915C84.393 17.8597 84.2052 17.6719 83.9734 17.6719Z" fill="url(#paint1_linear_6470_14473)"/>
<path id="Vector_14" d="M67.9473 29.291H44.7926C44.5609 29.291 44.373 29.4789 44.373 29.7106V33.7729C44.373 34.0046 44.5609 34.1925 44.7926 34.1925H67.9473C68.179 34.1925 68.3669 34.0046 68.3669 33.7729V29.7106C68.3669 29.4789 68.179 29.291 67.9473 29.291Z" fill="url(#paint2_linear_6470_14473)"/>
<path id="Vector_15" d="M92.5913 132.424H45.2168C44.7508 132.424 44.373 132.802 44.373 133.268V136.543C44.373 137.009 44.7508 137.387 45.2168 137.387H92.5913C93.0573 137.387 93.4351 137.009 93.4351 136.543V133.268C93.4351 132.802 93.0573 132.424 92.5913 132.424Z" fill="url(#paint3_linear_6470_14473)"/>
<path id="Vector_16" d="M113.756 49.207C113.756 50.1538 112.987 50.9239 112.039 50.9239C111.091 50.9239 110.314 50.1538 110.314 49.207C110.314 48.2603 111.083 47.4902 112.039 47.4902C112.995 47.4902 113.756 48.2603 113.756 49.207Z" fill="#424763"/>
<path id="Vector_17" d="M119.718 49.207C119.718 50.1538 118.949 50.9239 118.001 50.9239C117.053 50.9239 116.276 50.1538 116.276 49.207C116.276 48.2603 117.045 47.4902 118.001 47.4902C118.957 47.4902 119.718 48.2603 119.718 49.207Z" fill="#424763"/>
<path id="Vector_18" d="M125.68 49.207C125.68 50.1538 124.911 50.9239 123.963 50.9239C123.014 50.9239 122.238 50.1538 122.238 49.207C122.238 48.2603 123.007 47.4902 123.963 47.4902C124.919 47.4902 125.68 48.2603 125.68 49.207Z" fill="#424763"/>
</g>
<path id="Vector_19" fill-rule="evenodd" clip-rule="evenodd" d="M2.04522 132.489C2.84018 132.185 3.67971 131.782 4.32608 131.189C5.09132 130.49 5.40336 129.593 5.61138 128.65C5.87885 127.434 5.99029 126.141 6.31719 124.925C6.43606 124.469 6.66638 124.301 6.77039 124.225C7.02299 124.035 7.2756 123.982 7.51334 124.005C7.79566 124.028 8.18943 124.142 8.44203 124.659C8.47918 124.735 8.52375 124.841 8.5609 125.001C8.58319 125.115 8.59805 125.465 8.62777 125.609C8.6872 125.966 8.73921 126.324 8.79121 126.681C8.95466 127.875 9.04382 128.886 9.55646 129.981C10.2474 131.471 10.9383 132.375 11.8819 132.778C12.7883 133.166 13.8804 133.098 15.2697 132.786C15.4035 132.748 15.5298 132.725 15.6635 132.695C16.2727 132.581 16.8597 133.014 16.9785 133.668C17.0974 134.322 16.7111 134.96 16.1019 135.105C15.9756 135.135 15.8493 135.165 15.7304 135.188C13.8507 135.69 11.6813 137.477 10.4183 139.035C10.0319 139.514 9.45987 140.867 8.88037 141.726C8.44946 142.357 7.96654 142.776 7.56535 142.928C7.29045 143.026 7.06757 143.011 6.8744 142.958C6.59951 142.882 6.36919 142.722 6.19832 142.471C6.10173 142.335 6.01258 142.145 5.97543 141.909C5.95314 141.795 5.95314 141.506 5.95314 141.369C5.83427 140.928 5.69311 140.502 5.58166 140.061C5.32906 139.005 4.83871 138.336 4.25178 137.454C3.702 136.625 3.11507 136.108 2.24582 135.69C2.13437 135.66 1.22797 135.424 0.908501 135.287C0.440441 135.089 0.217558 134.747 0.135834 134.565C-0.00532719 134.261 -0.0127582 133.987 0.00953037 133.767C0.0466779 133.432 0.187838 133.151 0.433012 132.923C0.581603 132.778 0.811919 132.641 1.11653 132.573C1.35427 132.52 1.97092 132.489 2.06008 132.489H2.04522ZM7.37218 130.771C7.41675 130.87 7.46133 130.976 7.50591 131.075C8.51632 133.257 9.65304 134.474 11.0275 135.059L11.0721 135.082C10.1508 135.819 9.31871 136.64 8.67977 137.431C8.41974 137.758 8.07055 138.435 7.69165 139.126C7.34989 137.933 6.79268 137.089 6.0943 136.032C5.55938 135.226 4.99473 134.618 4.30379 134.124C4.83871 133.827 5.35135 133.478 5.79712 133.075C6.54007 132.398 7.03042 131.623 7.36475 130.771H7.37218Z" fill="#5367FE"/>
<path id="Vector_20" fill-rule="evenodd" clip-rule="evenodd" d="M131.323 14.3617C131.838 14.1696 132.381 13.9152 132.799 13.5406C133.294 13.0989 133.496 12.5323 133.631 11.9369C133.804 11.1686 133.876 10.3524 134.088 9.58411C134.165 9.29602 134.314 9.19038 134.381 9.14237C134.544 9.02233 134.708 8.98872 134.862 9.00312C135.044 9.01753 135.299 9.08955 135.462 9.41606C135.487 9.46408 135.515 9.5313 135.539 9.63213C135.554 9.70415 135.563 9.92503 135.583 10.0163C135.621 10.2419 135.655 10.4676 135.688 10.6933C135.794 11.4471 135.852 12.0857 136.184 12.7772C136.631 13.7183 137.078 14.2897 137.688 14.5442C138.275 14.789 138.981 14.7458 139.88 14.549C139.967 14.525 140.049 14.5105 140.135 14.4913C140.529 14.4193 140.909 14.693 140.986 15.1059C141.063 15.5189 140.813 15.9222 140.419 16.0134C140.337 16.0327 140.255 16.0519 140.178 16.0663C138.962 16.3832 137.558 17.5115 136.741 18.4959C136.491 18.7984 136.121 19.6531 135.746 20.1956C135.467 20.5942 135.155 20.8583 134.895 20.9543C134.717 21.0167 134.573 21.0071 134.448 20.9735C134.27 20.9255 134.121 20.8246 134.011 20.6662C133.948 20.5798 133.89 20.4597 133.866 20.3109C133.852 20.2389 133.852 20.0564 133.852 19.97C133.775 19.6915 133.684 19.4226 133.612 19.1441C133.448 18.4767 133.131 18.0541 132.751 17.4971C132.395 16.9738 132.016 16.6473 131.453 16.3832C131.381 16.364 130.795 16.2151 130.588 16.1287C130.285 16.0038 130.141 15.7878 130.088 15.6725C129.997 15.4805 129.992 15.3076 130.006 15.1684C130.03 14.9571 130.122 14.7794 130.28 14.6354C130.376 14.5442 130.525 14.4577 130.722 14.4145C130.876 14.3809 131.275 14.3617 131.333 14.3617H131.323ZM134.77 13.2765C134.799 13.339 134.828 13.4062 134.857 13.4686C135.511 14.8467 136.246 15.6149 137.135 15.9846L137.164 15.999C136.568 16.4648 136.03 16.9834 135.616 17.4827C135.448 17.6892 135.222 18.1166 134.977 18.5535C134.756 17.7996 134.395 17.2667 133.943 16.5992C133.597 16.0903 133.232 15.7061 132.785 15.394C133.131 15.2068 133.463 14.9859 133.751 14.7314C134.232 14.3041 134.549 13.8143 134.765 13.2765H134.77Z" fill="#5367FE"/>
</g>
<defs>
<linearGradient id="paint0_linear_6470_14473" x1="100.562" y1="22.7903" x2="137.737" y2="22.7903" gradientUnits="userSpaceOnUse">
<stop stop-color="#424763"/>
<stop offset="1" stop-color="#7A81A6"/>
</linearGradient>
<linearGradient id="paint1_linear_6470_14473" x1="45.0002" y1="20.9995" x2="84.5002" y2="20.4995" gradientUnits="userSpaceOnUse">
<stop stop-color="#454A66"/>
<stop offset="1" stop-color="#72799D"/>
</linearGradient>
<linearGradient id="paint2_linear_6470_14473" x1="45.0002" y1="31.999" x2="68.0002" y2="31.999" gradientUnits="userSpaceOnUse">
<stop stop-color="#454A66"/>
<stop offset="1" stop-color="#72799D"/>
</linearGradient>
<linearGradient id="paint3_linear_6470_14473" x1="44.0002" y1="134.999" x2="93.0002" y2="134.999" gradientUnits="userSpaceOnUse">
<stop stop-color="#454A66"/>
<stop offset="1" stop-color="#72799D"/>
</linearGradient>
<clipPath id="clip0_6470_14473">
<rect width="160.154" height="160" fill="white"/>
</clipPath>
</defs>
</svg>
