<svg width="16" height="16" viewBox="0 0 16 16" fill="none" xmlns="http://www.w3.org/2000/svg">
<path d="M6.83328 1H1.58328C1.26267 1 1 1.26267 1 1.58328V8C1 8.32078 1.26267 8.58328 1.58328 8.58328H6.83328C7.15405 8.58328 7.41672 8.32078 7.41672 8V1.58328C7.41672 1.26267 7.15405 1 6.83328 1ZM14.4167 7.41672H9.16672C8.84595 7.41672 8.58328 7.67922 8.58328 8V14.4167C8.58328 14.7373 8.84595 15 9.16672 15H14.4167C14.7373 15 15 14.7373 15 14.4167V8C15 7.67922 14.7373 7.41672 14.4167 7.41672ZM6.83328 9.75H1.58328C1.26267 9.75 1 10.0127 1 10.3333V14.4167C1 14.7373 1.26267 15 1.58328 15H6.83328C7.15405 15 7.41672 14.7373 7.41672 14.4167V10.3333C7.41672 10.0127 7.15405 9.75 6.83328 9.75ZM14.4167 1H9.16672C8.84595 1 8.58328 1.26267 8.58328 1.58328V5.66672C8.58328 5.98733 8.84595 6.25 9.16672 6.25H14.4167C14.7373 6.25 15 5.98733 15 5.66672V1.58328C15 1.26267 14.7373 1 14.4167 1Z" fill="#5367FE"/>
</svg>
