<svg width="18" height="12" viewBox="0 0 18 12" fill="none" xmlns="http://www.w3.org/2000/svg">
    <path
        d="M9.00014 8.77261C10.5306 8.77261 11.7713 7.53193 11.7713 6.00148C11.7713 4.47103 10.5306 3.23035 9.00014 3.23035C7.46968 3.23035 6.229 4.47103 6.229 6.00148C6.229 7.53193 7.46968 8.77261 9.00014 8.77261Z"
        fill="currentColor" />
    <path
        d="M17.7239 5.2339C15.5938 2.65987 12.3694 0.182129 9.00003 0.182129C5.62999 0.182129 2.40484 2.6616 0.276161 5.2339C-0.0920536 5.67867 -0.0920536 6.32435 0.276161 6.76911C0.811336 7.41583 1.9333 8.66422 3.43179 9.75501C7.20569 12.5023 10.7861 12.5084 14.5683 9.75501C16.0668 8.66422 17.1887 7.41583 17.7239 6.76911C18.091 6.32521 18.093 5.68013 17.7239 5.2339ZM9.00003 2.12192C11.1393 2.12192 12.8796 3.86219 12.8796 6.00151C12.8796 8.14082 11.1393 9.88109 9.00003 9.88109C6.86072 9.88109 5.12045 8.14082 5.12045 6.00151C5.12045 3.86219 6.86072 2.12192 9.00003 2.12192Z"
        fill="currentColor" />
</svg>