<svg width="19" height="19" viewBox="0 0 19 19" fill="none" xmlns="http://www.w3.org/2000/svg">
<path d="M12.1667 1.83333V0.916667C12.1667 0.673552 12.2735 0.440394 12.4636 0.268485C12.6538 0.0965771 12.9117 0 13.1806 0C13.4495 0 13.7073 0.0965771 13.8975 0.268485C14.0876 0.440394 14.1944 0.673552 14.1944 0.916667V1.83333C15.27 1.83333 16.3016 2.21964 17.0622 2.90728C17.8227 3.59491 18.25 4.52754 18.25 5.5V14.6667C18.25 15.6391 17.8227 16.5718 17.0622 17.2594C16.3016 17.947 15.27 18.3333 14.1944 18.3333H4.05556C2.97996 18.3333 1.94841 17.947 1.18784 17.2594C0.42728 16.5718 0 15.6391 0 14.6667V5.5C0 4.52754 0.42728 3.59491 1.18784 2.90728C1.94841 2.21964 2.97996 1.83333 4.05556 1.83333V0.916667C4.05556 0.673552 4.16238 0.440394 4.35252 0.268485C4.54266 0.0965771 4.80054 0 5.06944 0C5.33834 0 5.59623 0.0965771 5.78637 0.268485C5.97651 0.440394 6.08333 0.673552 6.08333 0.916667V1.83333H12.1667ZM16.2222 9.16667H2.02778V14.6667C2.02778 15.1529 2.24142 15.6192 2.6217 15.963C3.00198 16.3068 3.51776 16.5 4.05556 16.5H14.1944C14.7322 16.5 15.248 16.3068 15.6283 15.963C16.0086 15.6192 16.2222 15.1529 16.2222 14.6667V9.16667ZM14.1944 3.66667V4.58333C14.1944 4.82645 14.0876 5.05961 13.8975 5.23151C13.7073 5.40342 13.4495 5.5 13.1806 5.5C12.9117 5.5 12.6538 5.40342 12.4636 5.23151C12.2735 5.05961 12.1667 4.82645 12.1667 4.58333V3.66667H6.08333V4.58333C6.08333 4.82645 5.97651 5.05961 5.78637 5.23151C5.59623 5.40342 5.33834 5.5 5.06944 5.5C4.80054 5.5 4.54266 5.40342 4.35252 5.23151C4.16238 5.05961 4.05556 4.82645 4.05556 4.58333V3.66667C3.51776 3.66667 3.00198 3.85982 2.6217 4.20364C2.24142 4.54745 2.02778 5.01377 2.02778 5.5V7.33333H16.2222V5.5C16.2222 5.01377 16.0086 4.54745 15.6283 4.20364C15.248 3.85982 14.7322 3.66667 14.1944 3.66667Z" fill="#6C7080"/>
</svg>
