<svg width="200" height="200" viewBox="0 0 200 200" fill="none" xmlns="http://www.w3.org/2000/svg">
<path d="M0 0V66.4062H66.4062V0H0ZM50.7812 50.7812H15.625V15.625H50.7812V50.7812Z" fill="white"/>
<path d="M25.3906 25.3906H41.0156V41.0156H25.3906V25.3906ZM133.594 0V66.4062H200V0H133.594ZM184.375 50.7812H149.219V15.625H184.375V50.7812Z" fill="white"/>
<path d="M158.984 25.3906H174.609V41.0156H158.984V25.3906ZM0 133.594V200H66.4062V133.594H0ZM50.7812 184.375H15.625V149.219H50.7812V184.375Z" fill="white"/>
<path d="M25.3906 158.984H41.0156V174.609H25.3906V158.984ZM15.625 76.9531H31.25V92.5781H15.625V76.9531ZM46.875 108.203V92.5781H31.25V108.203H46.4844V123.828H62.1094V108.203H46.875ZM109.375 30.0781H125V45.7031H109.375V30.0781ZM78.125 15.625H93.75V45.7031H78.125V15.625ZM93.75 0H109.375V15.625H93.75V0ZM93.75 45.7031V61.3281H78.125V76.9531H109.375V45.7031H93.75ZM109.375 138.672V123.438H93.75V92.5781H78.125V123.828H93.75V139.062H109.375V154.297H140.625V138.672H109.375Z" fill="white"/>
<path d="M109.375 76.9531H125V108.203H109.375V76.9531ZM184.375 92.1875V76.9531H155.859V92.5781H140.625V108.203H156.25V123.438H200V92.1875H184.375ZM184.375 107.812H156.25V92.5781H184.375V107.812ZM184.375 138.672H200V169.922H184.375V138.672ZM125 108.203H140.625V123.828H125V108.203ZM140.625 154.297H156.25V169.922H140.625V154.297ZM156.25 138.672H171.875V154.297H156.25V138.672ZM156.25 169.922V200H171.875V185.547H184.375V169.922H156.25ZM78.125 139.062H93.75V168.75H78.125V139.062ZM125 184.375V168.75H93.75V200H109.375V184.375H124.609V200H140.234V184.375H125ZM46.875 76.9531H78.125V92.5781H46.875V76.9531ZM0 92.5781H15.625V123.828H0V92.5781Z" fill="white"/>
</svg>
