<svg width="20" height="20" viewBox="0 0 20 20" fill="none" xmlns="http://www.w3.org/2000/svg">
<path d="M0.909099 7.27272C0.363647 7.27272 0 6.90907 0 6.36362V2.72726C0 1.18181 1.18181 0 2.72726 0H6.36362C6.90907 0 7.27272 0.363647 7.27272 0.909099C7.27272 1.45455 6.90907 1.8182 6.36362 1.8182H2.72726C2.18181 1.8182 1.81816 2.18185 1.81816 2.7273V6.36366C1.8182 6.90907 1.45455 7.27272 0.909099 7.27272ZM19.0909 7.27272C18.5454 7.27272 18.1818 6.90907 18.1818 6.36362V2.72726C18.1818 2.18181 17.8182 1.81816 17.2727 1.81816H13.6363C13.0909 1.81816 12.7272 1.45451 12.7272 0.909062C12.7272 0.36361 13.0909 0 13.6363 0H17.2727C18.8182 0 20 1.18181 20 2.72726V6.36362C20 6.90907 19.6364 7.27272 19.0909 7.27272ZM6.36362 20H2.72726C1.18181 20 0 18.8182 0 17.2727V13.6364C0 13.0909 0.363647 12.7273 0.909099 12.7273C1.45455 12.7273 1.8182 13.0909 1.8182 13.6364V17.2727C1.8182 17.8182 2.18185 18.1818 2.7273 18.1818H6.36366C6.90911 18.1818 7.27276 18.5455 7.27276 19.0909C7.27272 19.6364 6.90907 20 6.36362 20ZM17.2727 20H13.6364C13.0909 20 12.7273 19.6364 12.7273 19.0909C12.7273 18.5454 13.0909 18.1818 13.6364 18.1818H17.2727C17.8182 18.1818 18.1818 17.8182 18.1818 17.2727V13.6363C18.1818 13.0909 18.5455 12.7272 19.0909 12.7272C19.6364 12.7272 20 13.0909 20 13.6363V17.2727C20 18.8182 18.8182 20 17.2727 20Z" fill="#5367FE"/>
<path d="M8.18193 9.09079H4.54557C4.00012 9.09079 3.63647 8.72714 3.63647 8.18169V4.54533C3.63647 3.99988 4.00012 3.63623 4.54557 3.63623H8.18193C8.72739 3.63623 9.09103 3.99988 9.09103 4.54533V8.18169C9.09103 8.72714 8.72739 9.09079 8.18193 9.09079ZM5.45467 7.27259H7.27287V5.45439H5.45467V7.27259ZM8.18193 16.3635H4.54557C4.00012 16.3635 3.63647 15.9999 3.63647 15.4544V11.818C3.63647 11.2726 4.00012 10.9089 4.54557 10.9089H8.18193C8.72739 10.9089 9.09103 11.2726 9.09103 11.818V15.4544C9.09103 15.9999 8.72739 16.3635 8.18193 16.3635ZM5.45467 14.5453H7.27287V12.7271H5.45467V14.5453ZM15.4547 9.09079H11.8183C11.2728 9.09079 10.9092 8.72714 10.9092 8.18169V4.54533C10.9092 3.99988 11.2728 3.63623 11.8183 3.63623H15.4547C16.0001 3.63623 16.3638 3.99988 16.3638 4.54533V8.18169C16.3638 8.72714 16.0001 9.09079 15.4547 9.09079ZM12.7274 7.27259H14.5456V5.45439H12.7274V7.27259ZM11.8183 13.6362C11.2728 13.6362 10.9092 13.2726 10.9092 12.7271V11.818C10.9092 11.2726 11.2728 10.9089 11.8183 10.9089C12.3637 10.9089 12.7274 11.2726 12.7274 11.818V12.7271C12.7274 13.2726 12.3637 13.6362 11.8183 13.6362ZM15.4547 12.7271H14.5456C14.0001 12.7271 13.6365 12.3635 13.6365 11.818C13.6365 11.2726 14.0001 10.9089 14.5456 10.9089H15.4547C16.0001 10.9089 16.3638 11.2726 16.3638 11.818C16.3638 12.3635 16.0001 12.7271 15.4547 12.7271ZM15.4547 16.3635H12.7274C12.1819 16.3635 11.8183 15.9999 11.8183 15.4544C11.8183 14.909 12.1819 14.5453 12.7274 14.5453H15.4547C16.0001 14.5453 16.3638 14.909 16.3638 15.4544C16.3638 15.9999 16.0001 16.3635 15.4547 16.3635Z" fill="#5367FE"/>
</svg>
