<svg width="18" height="18" viewBox="0 0 18 18" fill="none" xmlns="http://www.w3.org/2000/svg">
<g id="Frame">
<g id="Group">
<path id="Vector" d="M9 1C4.57841 1 1 4.578 1 9C1 13.4215 4.578 17 9 17C13.4216 17 17 13.422 17 9C17 4.57841 13.422 1 9 1ZM9 15.8837C5.20431 15.8837 2.11628 12.7957 2.11628 9C2.11628 5.20428 5.20431 2.11628 9 2.11628C12.7957 2.11628 15.8837 5.20428 15.8837 9C15.8837 12.7957 12.7957 15.8837 9 15.8837Z" fill="#6C7080"/>
<path id="Vector_2" d="M8.76331 11.1226C8.32103 11.1226 7.963 11.4912 7.963 11.9334C7.963 12.3652 8.3105 12.7443 8.76331 12.7443C9.21612 12.7443 9.57412 12.3652 9.57412 11.9334C9.57412 11.4912 9.20556 11.1226 8.76331 11.1226ZM8.90018 4.9834C7.47856 4.9834 6.82568 5.82587 6.82568 6.39449C6.82568 6.80518 7.17318 6.99474 7.4575 6.99474C8.02615 6.99474 7.7945 6.18387 8.86859 6.18387C9.39509 6.18387 9.81634 6.41555 9.81634 6.89996C9.81634 7.46859 9.22662 7.79502 8.87912 8.08987C8.57371 8.35309 8.17359 8.78487 8.17359 9.69049C8.17359 10.2381 8.32103 10.396 8.75275 10.396C9.26871 10.396 9.37403 10.1644 9.37403 9.96424C9.37403 9.41668 9.38456 9.10077 9.96375 8.64796C10.2481 8.42684 11.1431 7.71074 11.1431 6.7209C11.1431 5.73105 10.2481 4.9834 8.90018 4.9834Z" fill="#6C7080"/>
</g>
</g>
</svg>
