<svg width="20" height="20" viewBox="0 0 20 20" fill="none" xmlns="http://www.w3.org/2000/svg">
<path d="M10 1C5.02571 1 1 5.02525 1 10C1 14.9742 5.02525 19 10 19C14.9743 19 19 14.9747 19 10C19 5.02571 14.9747 1 10 1ZM10 17.7442C5.72985 17.7442 2.25582 14.2702 2.25582 10C2.25582 5.72982 5.72985 2.25582 10 2.25582C14.2702 2.25582 17.7442 5.72982 17.7442 10C17.7442 14.2702 14.2702 17.7442 10 17.7442Z" fill="currentColor" stroke="#6C7080" stroke-width="0.1"/>
<path d="M9.73354 12.3881C9.23597 12.3881 8.83319 12.8027 8.83319 13.3002C8.83319 13.786 9.22412 14.2125 9.73354 14.2125C10.243 14.2125 10.6457 13.786 10.6457 13.3002C10.6457 12.8027 10.2311 12.3881 9.73354 12.3881ZM9.88752 5.48145C8.28819 5.48145 7.55371 6.42922 7.55371 7.06893C7.55371 7.53095 7.94465 7.74421 8.2645 7.74421C8.90424 7.74421 8.64363 6.83197 9.85198 6.83197C10.4443 6.83197 10.9182 7.09262 10.9182 7.63758C10.9182 8.27728 10.2548 8.64452 9.86383 8.97622C9.52025 9.27234 9.07011 9.7581 9.07011 10.7769C9.07011 11.3929 9.23597 11.5706 9.72166 11.5706C10.3021 11.5706 10.4206 11.31 10.4206 11.0849C10.4206 10.4689 10.4324 10.1135 11.084 9.60408C11.4039 9.35531 12.4108 8.54971 12.4108 7.43613C12.4108 6.32256 11.4039 5.48145 9.88752 5.48145Z" fill="currentColor" stroke="#6C7080" stroke-width="0.1" />
</svg>
