<svg width="19" height="18" viewBox="0 0 19 18" fill="none" xmlns="http://www.w3.org/2000/svg">
    <path
        d="M16.6713 3.52625C14.9557 1.28528 12.3471 0 9.51429 0C7.52273 0 5.63417 0.639832 4.05268 1.85042C3.4811 2.28851 2.96392 2.79334 2.51214 3.35416L2.1103 1.07804C2.0663 0.829127 1.82868 0.662655 1.58001 0.706897L0.378146 0.919015C0.318948 0.929433 0.262383 0.951417 0.211686 0.983709C0.160988 1.016 0.117152 1.05797 0.0826831 1.10721C0.0482144 1.15646 0.0237889 1.21201 0.0108028 1.2707C-0.00218318 1.32939 -0.00347504 1.39006 0.0070011 1.44925L0.961776 6.85771C0.982937 6.97722 1.05068 7.08344 1.15011 7.15303C1.24955 7.22262 1.37254 7.24989 1.49207 7.22885L6.90059 6.27408C7.02012 6.25297 7.12637 6.18526 7.19597 6.08582C7.26557 5.98638 7.29283 5.86337 7.27174 5.74384L7.05956 4.54198C7.03845 4.42246 6.97074 4.31621 6.8713 4.2466C6.77186 4.177 6.64885 4.14975 6.52932 4.17084L4.27554 4.56871C4.5962 4.19021 4.95678 3.84743 5.35102 3.54632C6.55697 2.62322 7.99706 2.13534 9.51569 2.13534C11.6771 2.13534 13.667 3.11556 14.9754 4.82458C16.0901 6.28061 16.5709 8.08361 16.3295 9.90138C16.0881 11.7192 15.1532 13.3342 13.6971 14.4488C12.4877 15.3746 11.0499 15.8639 9.53901 15.8639C9.23172 15.8638 8.92478 15.8434 8.62017 15.803C6.8024 15.5616 5.18741 14.6267 4.07276 13.1706C3.3943 12.2843 2.93833 11.2386 2.7541 10.1465C2.73388 10.0268 2.66695 9.92006 2.56804 9.84971C2.46912 9.77935 2.34631 9.75116 2.22661 9.77134L1.02317 9.97436C0.903481 9.99457 0.796722 10.0615 0.726367 10.1604C0.656011 10.2593 0.62782 10.3821 0.647993 10.5018C0.889829 11.9355 1.48762 13.3073 2.37679 14.4689C3.83818 16.3779 5.95564 17.6037 8.33891 17.9202C8.73761 17.9731 9.13937 17.9998 9.54157 18C11.524 18 13.4099 17.3584 14.9952 16.1448C16.9043 14.6834 18.13 12.5659 18.4466 10.1826C18.7633 7.79924 18.1328 5.43531 16.6713 3.52625Z"
        fill="currentColor" />
</svg>