<svg width="24" height="24" viewBox="0 0 24 24" fill="none" xmlns="http://www.w3.org/2000/svg">
<path fill-rule="evenodd" clip-rule="evenodd" d="M3.26351 15.8637C3.43228 15.695 3.66116 15.6002 3.89981 15.6002C4.13846 15.6002 4.36733 15.695 4.53611 15.8637L7.49981 18.8274L10.4635 15.8637C10.6333 15.6998 10.8606 15.6091 11.0966 15.6111C11.3325 15.6132 11.5583 15.7078 11.7251 15.8747C11.892 16.0416 11.9867 16.2673 11.9887 16.5033C11.9908 16.7392 11.9001 16.9666 11.7361 17.1363L8.13611 20.7363C7.96733 20.9051 7.73846 20.9998 7.49981 20.9998C7.26116 20.9998 7.03228 20.9051 6.86351 20.7363L3.26351 17.1363C3.09478 16.9676 3 16.7387 3 16.5C3 16.2614 3.09478 16.0325 3.26351 15.8637Z" fill="white"/>
<path fill-rule="evenodd" clip-rule="evenodd" d="M7.49961 8.40005C7.7383 8.40005 7.96722 8.49487 8.13601 8.66366C8.30479 8.83244 8.39961 9.06136 8.39961 9.30005V20.1001C8.39961 20.3387 8.30479 20.5677 8.13601 20.7364C7.96722 20.9052 7.7383 21.0001 7.49961 21.0001C7.26091 21.0001 7.032 20.9052 6.86321 20.7364C6.69443 20.5677 6.59961 20.3387 6.59961 20.1001V9.30005C6.59961 9.06136 6.69443 8.83244 6.86321 8.66366C7.032 8.49487 7.26091 8.40005 7.49961 8.40005ZM15.8633 3.26375C16.0321 3.09503 16.261 3.00024 16.4996 3.00024C16.7383 3.00024 16.9671 3.09503 17.1359 3.26375L20.7359 6.86375C20.8999 7.03349 20.9906 7.26084 20.9885 7.49681C20.9865 7.73279 20.8918 7.95852 20.7249 8.12539C20.5581 8.29226 20.3323 8.38691 20.0964 8.38896C19.8604 8.39101 19.6331 8.30029 19.4633 8.13635L16.4996 5.17265L13.5359 8.13635C13.4529 8.22231 13.3536 8.29087 13.2438 8.33804C13.134 8.38521 13.0159 8.41004 12.8964 8.41108C12.7769 8.41212 12.6584 8.38934 12.5478 8.34409C12.4371 8.29884 12.3367 8.23201 12.2522 8.14751C12.1677 8.063 12.1008 7.96252 12.0556 7.85191C12.0103 7.7413 11.9875 7.62279 11.9886 7.50329C11.9896 7.38379 12.0145 7.26569 12.0616 7.15589C12.1088 7.04608 12.1774 6.94677 12.2633 6.86375L15.8633 3.26375Z" fill="white"/>
<path fill-rule="evenodd" clip-rule="evenodd" d="M16.4996 3C16.7383 3 16.9672 3.09482 17.136 3.2636C17.3048 3.43239 17.3996 3.66131 17.3996 3.9V14.7C17.3996 14.9387 17.3048 15.1676 17.136 15.3364C16.9672 15.5052 16.7383 15.6 16.4996 15.6C16.2609 15.6 16.032 15.5052 15.8632 15.3364C15.6944 15.1676 15.5996 14.9387 15.5996 14.7V3.9C15.5996 3.66131 15.6944 3.43239 15.8632 3.2636C16.032 3.09482 16.2609 3 16.4996 3Z" fill="white"/>
</svg>
