<svg width="20" height="18" viewBox="0 0 20 18" fill="none" xmlns="http://www.w3.org/2000/svg">
<path d="M10.7379 0C8.75934 0.00962969 6.83987 0.675335 5.28023 1.89282C3.72059 3.1103 2.60888 4.81077 2.11928 6.72781L1.52038 5.8221C1.46369 5.72727 1.38837 5.64492 1.29898 5.57999C1.20959 5.51507 1.10798 5.46892 1.00027 5.44433C0.892557 5.41974 0.780983 5.41722 0.672273 5.43692C0.563563 5.45662 0.459969 5.49813 0.367738 5.55896C0.275508 5.61978 0.196551 5.69865 0.13563 5.79082C0.0747086 5.88299 0.0330848 5.98654 0.0132685 6.09523C-0.00654781 6.20391 -0.00414603 6.31549 0.020329 6.42323C0.044804 6.53096 0.0908452 6.63262 0.155676 6.72208L1.95565 9.44986C2.08068 9.62482 2.26503 9.7484 2.47437 9.79759C2.68813 9.83999 2.91 9.79744 3.09291 9.67895L5.79287 7.86016C5.88596 7.80203 5.9664 7.72576 6.02941 7.63589C6.09242 7.54603 6.1367 7.44441 6.15962 7.33707C6.18255 7.22974 6.18364 7.1189 6.16284 7.01113C6.14204 6.90337 6.09977 6.80089 6.03855 6.7098C5.97733 6.61871 5.89841 6.54087 5.80648 6.48091C5.71456 6.42095 5.61151 6.3801 5.50347 6.36079C5.39543 6.34147 5.28461 6.34409 5.1776 6.36849C5.0706 6.39289 4.96959 6.43857 4.88061 6.50281L3.65253 7.3308C3.97938 6.00405 4.67257 4.79588 5.65303 3.84414C6.63348 2.89241 7.86172 2.23542 9.1976 1.94815C10.5335 1.66089 11.9232 1.7549 13.2082 2.21947C14.4932 2.68404 15.6218 3.50045 16.4652 4.57557C17.3085 5.65068 17.8327 6.9412 17.9778 8.29989C18.123 9.65857 17.8834 11.0307 17.2862 12.2597C16.6891 13.4888 15.7585 14.5252 14.6006 15.2508C13.4428 15.9764 12.1043 16.3619 10.7379 16.3634C9.56654 16.3602 8.41329 16.0743 7.37615 15.5299C6.33901 14.9854 5.44866 14.1986 4.78079 13.2364C4.72098 13.1445 4.64332 13.0656 4.55242 13.0044C4.46153 12.9431 4.35925 12.9007 4.25167 12.8798C4.14408 12.8588 4.03338 12.8597 3.92614 12.8823C3.8189 12.905 3.7173 12.9489 3.62737 13.0116C3.53745 13.0743 3.46104 13.1544 3.40267 13.2472C3.3443 13.3399 3.30517 13.4435 3.2876 13.5517C3.27003 13.6599 3.27438 13.7705 3.30038 13.877C3.32639 13.9834 3.37352 14.0836 3.43899 14.1715C4.52476 15.7368 6.084 16.9125 7.88755 17.5259C9.69111 18.1393 11.6439 18.1579 13.4588 17.5791C15.2737 17.0004 16.8552 15.8546 17.9706 14.3104C19.0861 12.7661 19.6768 10.9048 19.6559 8.99987C19.664 6.62465 18.7296 4.34321 17.0578 2.65601C15.3859 0.968817 13.1131 0.0136359 10.7379 0Z" fill="white"/>
<path d="M10.6561 4.04993C10.4391 4.04993 10.231 4.13613 10.0775 4.28956C9.92409 4.443 9.83789 4.6511 9.83789 4.8681V8.99985C9.84137 9.21613 9.92709 9.42296 10.0776 9.5783L12.5321 12.0549C12.6861 12.2065 12.8933 12.2919 13.1094 12.293C13.3255 12.2941 13.5335 12.2107 13.689 12.0606C13.8431 11.9079 13.9301 11.7001 13.931 11.4832C13.9319 11.2662 13.8467 11.0578 13.6939 10.9037L11.4742 8.66359V4.8681C11.4742 4.6511 11.388 4.443 11.2346 4.28956C11.0812 4.13613 10.8731 4.04993 10.6561 4.04993Z" fill="white"/>
</svg>
