<svg width="16" height="16" viewBox="0 0 16 16" fill="none" xmlns="http://www.w3.org/2000/svg">
<g clip-path="url(#clip0_3167_14125)">
<path d="M13 12C11.346 12 10 10.654 10 8.99996C10 7.34596 11.346 5.99996 13 5.99996H14.6667V4.66663C14.6667 3.93129 14.0687 3.33329 13.3333 3.33329H12.6667V1.99996C12.6667 1.26463 12.0687 0.666626 11.3333 0.666626H2C1.52842 0.667756 1.07243 0.835597 0.712653 1.14047C0.352876 1.44535 0.112491 1.86762 0.034 2.33263C0.0193333 2.38729 0 2.44063 0 2.49996V12.6666C0 13.7693 0.897333 14.6666 2 14.6666H13.3333C14.0687 14.6666 14.6667 14.0686 14.6667 13.3333V12H13ZM1.33333 2.66663C1.33333 2.29929 1.632 1.99996 2 1.99996H11.3333V3.33329H2C1.632 3.33329 1.33333 3.03396 1.33333 2.66663Z" fill="#6C7080"/>
<path d="M15.5 7H13C11.8973 7 11 7.89733 11 9C11 10.1027 11.8973 11 13 11H15.5C15.6326 11 15.7598 10.9473 15.8536 10.8536C15.9473 10.7598 16 10.6326 16 10.5V7.5C16 7.36739 15.9473 7.24022 15.8536 7.14645C15.7598 7.05268 15.6326 7 15.5 7ZM13 9.66667C12.8232 9.66667 12.6536 9.59643 12.5286 9.4714C12.4036 9.34638 12.3333 9.17681 12.3333 9C12.3333 8.82319 12.4036 8.65362 12.5286 8.5286C12.6536 8.40357 12.8232 8.33333 13 8.33333C13.1768 8.33333 13.3464 8.40357 13.4714 8.5286C13.5964 8.65362 13.6667 8.82319 13.6667 9C13.6667 9.17681 13.5964 9.34638 13.4714 9.4714C13.3464 9.59643 13.1768 9.66667 13 9.66667Z" fill="#6C7080"/>
</g>
<defs>
<clipPath id="clip0_3167_14125">
<rect width="16" height="16" fill="white"/>
</clipPath>
</defs>
</svg>
