<svg width="16" height="14" viewBox="0 0 16 14" fill="none" xmlns="http://www.w3.org/2000/svg">
    <path
        d="M6.96273 1.1469L1.14055 11.2305C1.03538 11.4126 0.98 11.6192 0.97998 11.8294C0.979961 12.0397 1.0353 12.2463 1.14044 12.4284C1.24557 12.6105 1.3968 12.7618 1.57891 12.8669C1.76102 12.972 1.96761 13.0274 2.17789 13.0274H13.8213C14.0316 13.0274 14.2382 12.972 14.4203 12.8669C14.6024 12.7618 14.7536 12.6105 14.8588 12.4284C14.9639 12.2463 15.0193 12.0397 15.0192 11.8294C15.0192 11.6192 14.9638 11.4126 14.8587 11.2305L9.03711 1.1469C8.93199 0.96484 8.7808 0.813657 8.59874 0.708545C8.41668 0.603433 8.21015 0.548096 7.99992 0.548096C7.78969 0.548096 7.58317 0.603433 7.40111 0.708545C7.21904 0.813657 7.06785 0.96484 6.96273 1.1469Z"
        fill="#FFB400" />
    <path
        d="M8.07598 4.25696H7.9241C7.55019 4.25696 7.24707 4.56008 7.24707 4.93399V8.17008C7.24707 8.544 7.55019 8.84711 7.9241 8.84711H8.07598C8.44989 8.84711 8.75301 8.544 8.75301 8.17008V4.93399C8.75301 4.56008 8.44989 4.25696 8.07598 4.25696Z"
        fill="#FCF4D9" />
    <path
        d="M8.00004 11.4137C8.41589 11.4137 8.75301 11.0765 8.75301 10.6607C8.75301 10.2448 8.41589 9.90771 8.00004 9.90771C7.58419 9.90771 7.24707 10.2448 7.24707 10.6607C7.24707 11.0765 7.58419 11.4137 8.00004 11.4137Z"
        fill="#FCF4D9" />
</svg>