<svg width="20" height="18" viewBox="0 0 20 18" fill="none" xmlns="http://www.w3.org/2000/svg">
<path d="M14.8957 11.5108H14.8956C14.565 11.5108 14.2968 11.7791 14.2968 12.1097V15.2355C14.2968 15.5919 14.0068 15.8819 13.6504 15.8819H2.76403C2.40768 15.8819 2.11767 15.5919 2.11767 15.2355V4.04985C2.32577 4.11946 2.54395 4.15526 2.7639 4.15565H2.76403H13.6508C14.0072 4.15565 14.2972 4.44566 14.2972 4.80201V6.86863C14.2972 7.02745 14.3603 7.17977 14.4726 7.29207C14.5849 7.40438 14.7372 7.46747 14.896 7.46747C15.0548 7.46747 15.2072 7.40438 15.3195 7.29207C15.4318 7.17977 15.4949 7.02745 15.4949 6.86863V4.80201V4.80192C15.4943 4.31305 15.2998 3.84437 14.9541 3.49869C14.6085 3.15301 14.1398 2.95855 13.6509 2.95798H13.6508H13.5702V2.53782C13.5702 1.63613 12.7326 0.92 11.7262 0.92H2.76403C1.75802 0.92 0.92 1.63569 0.92 2.53782C0.92 2.56572 0.923486 2.5916 0.926773 2.6132C0.927595 2.61861 0.928385 2.62365 0.929134 2.62842C0.930952 2.64001 0.932525 2.65005 0.933712 2.65993C0.933122 2.66226 0.932385 2.66495 0.931436 2.66841C0.930644 2.6713 0.929705 2.67472 0.928581 2.67892C0.925031 2.69219 0.92 2.71245 0.92 2.73623L0.92 15.236L0.92 15.2361C0.920574 15.7249 1.11503 16.1936 1.46071 16.5393C1.80639 16.885 2.27507 17.0794 2.76394 17.08H2.76403H13.6508H13.6509C14.1398 17.0795 14.6086 16.8851 14.9543 16.5394C15.3 16.1937 15.4944 15.7249 15.4949 15.236V15.236V12.1101V12.11C15.4947 11.9512 15.4316 11.7988 15.3192 11.6865C15.2069 11.5741 15.0546 11.511 14.8957 11.5108ZM19.0835 7.98625L19.0834 7.98621L16.6001 6.89541L16.5995 6.89514C16.4543 6.83288 16.2904 6.83049 16.1435 6.88847C15.9966 6.94646 15.8786 7.06013 15.8151 7.20474C15.7516 7.34936 15.7478 7.5132 15.8045 7.66059C15.8613 7.80799 15.9739 7.927 16.118 7.99173L16.1186 7.992L17.0846 8.41603C16.1456 8.70197 14.8392 9.06411 13.4931 9.32401C12.0439 9.60381 10.5574 9.76329 9.43462 9.58688C9.35637 9.57281 9.27611 9.57446 9.1985 9.59174C9.12057 9.60909 9.04691 9.64185 8.98183 9.68809C8.91675 9.73432 8.86157 9.7931 8.81954 9.86097C8.77751 9.92885 8.74947 10.0044 8.73708 10.0833C8.72468 10.1622 8.72818 10.2427 8.74737 10.3202C8.76656 10.3977 8.80105 10.4706 8.84881 10.5345C8.89657 10.5985 8.95664 10.6523 9.02549 10.6927C9.09405 10.7329 9.16993 10.7591 9.24871 10.7697C9.6337 10.8306 10.049 10.8573 10.4839 10.8573C12.9787 10.8573 16.14 9.97483 17.7845 9.45608L17.2044 10.7771L17.2044 10.7771C17.1728 10.8492 17.1557 10.9267 17.1541 11.0054C17.1524 11.084 17.1663 11.1622 17.1949 11.2355L17.2694 11.2064L17.1949 11.2355C17.2234 11.3088 17.2662 11.3757 17.3206 11.4325C17.3751 11.4893 17.4402 11.5347 17.5122 11.5664C17.5842 11.598 17.6618 11.6151 17.7404 11.6167C17.8191 11.6184 17.8973 11.6045 17.9706 11.5759C18.1186 11.5182 18.2376 11.4041 18.3014 11.2586C18.3014 11.2586 18.3014 11.2586 18.3014 11.2586L19.3922 8.77483L19.3924 8.77446C19.4554 8.62892 19.4583 8.46435 19.4005 8.31667C19.3426 8.16899 19.2287 8.05021 19.0835 7.98625ZM2.76403 2.11808H11.7262C11.9045 2.11808 12.0701 2.17208 12.1892 2.25412C12.3096 2.33708 12.3725 2.44058 12.3725 2.53824V2.95839H2.76403C2.58593 2.95839 2.42033 2.9044 2.30115 2.82235C2.18062 2.73937 2.11767 2.63586 2.11767 2.53824C2.11767 2.44061 2.18062 2.33711 2.30115 2.25413C2.42033 2.17208 2.58593 2.11808 2.76403 2.11808Z" fill="white" stroke="white" stroke-width="0.16"/>
</svg>
