<svg width="14" height="14" viewBox="0 0 14 14" fill="none" xmlns="http://www.w3.org/2000/svg">
<g clip-path="url(#clip0_4725_6536)">
<path d="M7.58624 5.89098C7.58681 5.89674 7.58771 5.90238 7.58862 5.90802C7.58907 5.91084 7.58952 5.91366 7.58993 5.91649C7.5903 5.91907 7.59066 5.92165 7.59101 5.92422C7.59206 5.93196 7.59312 5.9397 7.59464 5.94739C7.59609 5.95472 7.59796 5.96187 7.59982 5.96903C7.60045 5.97144 7.60108 5.97385 7.60169 5.97627C7.60231 5.97872 7.6029 5.98118 7.6035 5.98364C7.60504 5.99003 7.60659 5.99642 7.6085 6.00274C7.61062 6.00975 7.61312 6.01659 7.61563 6.02342C7.6165 6.02578 7.61736 6.02813 7.61821 6.03049C7.61911 6.03299 7.61999 6.03551 7.62087 6.03802C7.62306 6.04425 7.62524 6.05049 7.62778 6.05663C7.63028 6.0627 7.63311 6.06858 7.63595 6.07446C7.63713 6.07693 7.63832 6.07939 7.63948 6.08187C7.64055 6.08414 7.64161 6.08641 7.64266 6.08869C7.64573 6.09529 7.64879 6.1019 7.65225 6.10837C7.65535 6.11412 7.65874 6.11969 7.66213 6.12525C7.66347 6.12746 7.66482 6.12966 7.66614 6.13188C7.66751 6.13418 7.66887 6.13648 7.67022 6.13878C7.67388 6.14501 7.67754 6.15124 7.68159 6.15731C7.68582 6.16365 7.69042 6.16971 7.69502 6.17577C7.69669 6.17797 7.69837 6.18017 7.70002 6.18238C7.70184 6.18481 7.70361 6.18725 7.70538 6.18969C7.70867 6.19423 7.71196 6.19878 7.71555 6.20317C7.72766 6.2179 7.74041 6.2321 7.75389 6.24558L7.75419 6.2459L7.75449 6.24618C7.768 6.25966 7.78216 6.27243 7.79693 6.28454C7.80142 6.28823 7.80607 6.2916 7.81072 6.29496C7.81306 6.29666 7.81541 6.29836 7.81774 6.3001C7.81977 6.30163 7.8218 6.30317 7.82383 6.30471C7.83005 6.30943 7.83627 6.31415 7.84278 6.3185C7.84893 6.32261 7.85525 6.32631 7.86157 6.33002C7.8638 6.33132 7.86602 6.33263 7.86824 6.33395C7.8705 6.3353 7.87275 6.33668 7.875 6.33805C7.88051 6.34141 7.88602 6.34477 7.89173 6.34784C7.89832 6.35137 7.90504 6.35448 7.91178 6.35761C7.91393 6.3586 7.91608 6.3596 7.91822 6.36061C7.92051 6.36169 7.92279 6.36279 7.92507 6.36389C7.93115 6.36681 7.93722 6.36974 7.94346 6.37234C7.94994 6.37502 7.95653 6.37732 7.96313 6.37962C7.9653 6.38038 7.96746 6.38114 7.96963 6.38191C7.97194 6.38274 7.97424 6.38358 7.97654 6.38443C7.98342 6.38695 7.99028 6.38946 7.99733 6.39159C8.00362 6.3935 8.01 6.39504 8.01637 6.39658C8.01886 6.39718 8.02134 6.39778 8.02383 6.3984C8.02626 6.39902 8.02868 6.39965 8.03111 6.40028C8.03825 6.40214 8.04538 6.40401 8.05267 6.40546C8.0605 6.407 8.06837 6.40808 8.07624 6.40916C8.07868 6.4095 8.08113 6.40984 8.08357 6.41019C8.08659 6.41061 8.08958 6.41109 8.09258 6.41157C8.09804 6.41245 8.10351 6.41333 8.10908 6.41388C8.12825 6.41574 8.14745 6.41675 8.16667 6.41675L12.25 6.41675C12.5722 6.41675 12.8333 6.15559 12.8333 5.83342C12.8333 5.51126 12.5722 5.2501 12.25 5.2501H9.57498L13.8291 0.995904C14.057 0.768104 14.057 0.398744 13.8291 0.170943C13.6013 -0.0568576 13.232 -0.0568576 13.0042 0.170943L8.75002 4.42511V1.75007C8.75002 1.42791 8.48886 1.16675 8.1667 1.16675C7.84453 1.16675 7.58334 1.42791 7.58334 1.75007L7.58334 5.83337C7.58334 5.85262 7.58436 5.87184 7.58624 5.89098Z" fill="#6C7080"/>
<path d="M7.58624 5.89098C7.58681 5.89674 7.58771 5.90238 7.58862 5.90802C7.58907 5.91084 7.58952 5.91366 7.58993 5.91649C7.5903 5.91907 7.59066 5.92165 7.59101 5.92422C7.59206 5.93196 7.59312 5.9397 7.59464 5.94739C7.59609 5.95472 7.59796 5.96187 7.59982 5.96903C7.60045 5.97144 7.60108 5.97385 7.60169 5.97627C7.60231 5.97872 7.6029 5.98118 7.6035 5.98364C7.60504 5.99003 7.60659 5.99642 7.6085 6.00274C7.61062 6.00975 7.61312 6.01659 7.61563 6.02342C7.6165 6.02578 7.61736 6.02813 7.61821 6.03049C7.61911 6.03299 7.61999 6.03551 7.62087 6.03802C7.62306 6.04425 7.62524 6.05049 7.62778 6.05663C7.63028 6.0627 7.63311 6.06858 7.63595 6.07446C7.63713 6.07693 7.63832 6.07939 7.63948 6.08187C7.64055 6.08414 7.64161 6.08641 7.64266 6.08869C7.64573 6.09529 7.64879 6.1019 7.65225 6.10837C7.65535 6.11412 7.65874 6.11969 7.66213 6.12525C7.66347 6.12746 7.66482 6.12966 7.66614 6.13188C7.66751 6.13418 7.66887 6.13648 7.67022 6.13878C7.67388 6.14501 7.67754 6.15124 7.68159 6.15731C7.68582 6.16365 7.69042 6.16971 7.69502 6.17577C7.69669 6.17797 7.69837 6.18017 7.70002 6.18238C7.70184 6.18481 7.70361 6.18725 7.70538 6.18969C7.70867 6.19423 7.71196 6.19878 7.71555 6.20317C7.72766 6.2179 7.74041 6.2321 7.75389 6.24558L7.75419 6.2459L7.75449 6.24618C7.768 6.25966 7.78216 6.27243 7.79693 6.28454C7.80142 6.28823 7.80607 6.2916 7.81072 6.29496C7.81306 6.29666 7.81541 6.29836 7.81774 6.3001C7.81977 6.30163 7.8218 6.30317 7.82383 6.30471C7.83005 6.30943 7.83627 6.31415 7.84278 6.3185C7.84893 6.32261 7.85525 6.32631 7.86157 6.33002C7.8638 6.33132 7.86602 6.33263 7.86824 6.33395C7.8705 6.3353 7.87275 6.33668 7.875 6.33805C7.88051 6.34141 7.88602 6.34477 7.89173 6.34784C7.89832 6.35137 7.90504 6.35448 7.91178 6.35761C7.91393 6.3586 7.91608 6.3596 7.91822 6.36061C7.92051 6.36169 7.92279 6.36279 7.92507 6.36389C7.93115 6.36681 7.93722 6.36974 7.94346 6.37234C7.94994 6.37502 7.95653 6.37732 7.96313 6.37962C7.9653 6.38038 7.96746 6.38114 7.96963 6.38191C7.97194 6.38274 7.97424 6.38358 7.97654 6.38443C7.98342 6.38695 7.99028 6.38946 7.99733 6.39159C8.00362 6.3935 8.01 6.39504 8.01637 6.39658C8.01886 6.39718 8.02134 6.39778 8.02383 6.3984C8.02626 6.39902 8.02868 6.39965 8.03111 6.40028C8.03825 6.40214 8.04538 6.40401 8.05267 6.40546C8.0605 6.407 8.06837 6.40808 8.07624 6.40916C8.07868 6.4095 8.08113 6.40984 8.08357 6.41019C8.08659 6.41061 8.08958 6.41109 8.09258 6.41157C8.09804 6.41245 8.10351 6.41333 8.10908 6.41388C8.12825 6.41574 8.14745 6.41675 8.16667 6.41675L12.25 6.41675C12.5722 6.41675 12.8333 6.15559 12.8333 5.83342C12.8333 5.51126 12.5722 5.2501 12.25 5.2501H9.57498L13.8291 0.995904C14.057 0.768104 14.057 0.398744 13.8291 0.170943C13.6013 -0.0568576 13.232 -0.0568576 13.0042 0.170943L8.75002 4.42511V1.75007C8.75002 1.42791 8.48886 1.16675 8.1667 1.16675C7.84453 1.16675 7.58334 1.42791 7.58334 1.75007L7.58334 5.83337C7.58334 5.85262 7.58436 5.87184 7.58624 5.89098Z" stroke="#6C7080"/>
<path d="M0.170756 13.0043L4.42492 8.75017H1.74989C1.42772 8.75017 1.16656 8.48901 1.16656 8.16685C1.16656 7.84466 1.42772 7.5835 1.74989 7.5835L5.83321 7.5835C5.85243 7.5835 5.87163 7.58451 5.89077 7.58639C5.89648 7.58696 5.90208 7.58786 5.9077 7.58876C5.91055 7.58921 5.9134 7.58967 5.91628 7.59009C5.9188 7.59045 5.92133 7.59079 5.92386 7.59114C5.93166 7.5922 5.93946 7.59327 5.94718 7.59482C5.95447 7.59626 5.96158 7.59812 5.9687 7.59998C5.97114 7.60061 5.97358 7.60125 5.97603 7.60187C5.97845 7.60248 5.98087 7.60306 5.98329 7.60365C5.98973 7.6052 5.99616 7.60675 6.00252 7.60868C6.00968 7.61084 6.01667 7.61341 6.02365 7.61597C6.02584 7.61677 6.02803 7.61757 6.03022 7.61836C6.03268 7.61924 6.03513 7.6201 6.03759 7.62096C6.04389 7.62317 6.05019 7.62537 6.05639 7.62793C6.0626 7.63049 6.06861 7.6334 6.07463 7.6363C6.07696 7.63743 6.07929 7.63855 6.08163 7.63966C6.0839 7.64073 6.08617 7.64179 6.08845 7.64284C6.09505 7.64591 6.10166 7.64897 6.10812 7.65243C6.11384 7.6555 6.11934 7.65886 6.12486 7.66223C6.1271 7.6636 6.12935 7.66497 6.13161 7.66632C6.13395 7.66772 6.1363 7.6691 6.13866 7.67048C6.14485 7.67411 6.15104 7.67775 6.15707 7.68177C6.16343 7.68601 6.16949 7.69061 6.17556 7.69522C6.17774 7.69688 6.17992 7.69853 6.18212 7.70017C6.18444 7.70191 6.18679 7.70361 6.18913 7.70531C6.19378 7.70867 6.19843 7.71204 6.20292 7.71573C6.21769 7.72784 6.23188 7.74061 6.24536 7.75409L6.24566 7.75437L6.24596 7.7547C6.25942 7.76818 6.27219 7.78237 6.2843 7.79711C6.28801 7.80162 6.29139 7.80629 6.29476 7.81096C6.29644 7.81328 6.29812 7.81559 6.29983 7.81789C6.30148 7.8201 6.30315 7.8223 6.30483 7.8245C6.30943 7.83056 6.31403 7.83662 6.31826 7.84296C6.32239 7.84912 6.3261 7.85546 6.32983 7.86181C6.33112 7.86401 6.3324 7.8662 6.33371 7.86839C6.33504 7.87062 6.3364 7.87284 6.33775 7.87505C6.34113 7.8806 6.34451 7.88614 6.3476 7.89191C6.35106 7.89838 6.35413 7.90498 6.35719 7.91159C6.35825 7.91386 6.3593 7.91614 6.36037 7.9184C6.36142 7.92063 6.36249 7.92285 6.36356 7.92506C6.36651 7.9312 6.36946 7.93733 6.37207 7.94364C6.37465 7.94988 6.37686 7.9562 6.37908 7.96254C6.37993 7.96495 6.38077 7.96737 6.38164 7.96978C6.38247 7.97208 6.38331 7.97438 6.38415 7.97668C6.38667 7.98357 6.3892 7.99046 6.39135 7.99754C6.39326 8.00385 6.39481 8.01024 6.39635 8.01662C6.39695 8.01908 6.39754 8.02155 6.39816 8.024C6.39877 8.02642 6.3994 8.02882 6.40002 8.03123C6.40189 8.03839 6.40376 8.04555 6.40521 8.05288C6.40673 8.06057 6.40779 8.0683 6.40884 8.07604C6.40919 8.07862 6.40955 8.0812 6.40992 8.08378C6.41034 8.08679 6.41082 8.0898 6.41131 8.0928C6.41218 8.09826 6.41306 8.10373 6.41361 8.10929C6.41549 8.12843 6.41651 8.14763 6.41651 8.16682L6.41651 12.2502C6.41651 12.5723 6.15535 12.8335 5.83318 12.8335C5.51102 12.8335 5.24986 12.5723 5.24986 12.2502L5.24986 9.57513L0.995662 13.8293C0.767861 14.0571 0.398502 14.0571 0.170701 13.8293C-0.0570998 13.6015 -0.0570447 13.2322 0.170756 13.0043Z" fill="#6C7080"/>
<path d="M0.170756 13.0043L4.42492 8.75017H1.74989C1.42772 8.75017 1.16656 8.48901 1.16656 8.16685C1.16656 7.84466 1.42772 7.5835 1.74989 7.5835L5.83321 7.5835C5.85243 7.5835 5.87163 7.58451 5.89077 7.58639C5.89648 7.58696 5.90208 7.58786 5.9077 7.58876C5.91055 7.58921 5.9134 7.58967 5.91628 7.59009C5.9188 7.59045 5.92133 7.59079 5.92386 7.59114C5.93166 7.5922 5.93946 7.59327 5.94718 7.59482C5.95447 7.59626 5.96158 7.59812 5.9687 7.59998C5.97114 7.60061 5.97358 7.60125 5.97603 7.60187C5.97845 7.60248 5.98087 7.60306 5.98329 7.60365C5.98973 7.6052 5.99616 7.60675 6.00252 7.60868C6.00968 7.61084 6.01667 7.61341 6.02365 7.61597C6.02584 7.61677 6.02803 7.61757 6.03022 7.61836C6.03268 7.61924 6.03513 7.6201 6.03759 7.62096C6.04389 7.62317 6.05019 7.62537 6.05639 7.62793C6.0626 7.63049 6.06861 7.6334 6.07463 7.6363C6.07696 7.63743 6.07929 7.63855 6.08163 7.63966C6.0839 7.64073 6.08617 7.64179 6.08845 7.64284C6.09505 7.64591 6.10166 7.64897 6.10812 7.65243C6.11384 7.6555 6.11934 7.65886 6.12486 7.66223C6.1271 7.6636 6.12935 7.66497 6.13161 7.66632C6.13395 7.66772 6.1363 7.6691 6.13866 7.67048C6.14485 7.67411 6.15104 7.67775 6.15707 7.68177C6.16343 7.68601 6.16949 7.69061 6.17556 7.69522C6.17774 7.69688 6.17992 7.69853 6.18212 7.70017C6.18444 7.70191 6.18679 7.70361 6.18913 7.70531C6.19378 7.70867 6.19843 7.71204 6.20292 7.71573C6.21769 7.72784 6.23188 7.74061 6.24536 7.75409L6.24566 7.75437L6.24596 7.7547C6.25942 7.76818 6.27219 7.78237 6.2843 7.79711C6.28801 7.80162 6.29139 7.80629 6.29476 7.81096C6.29644 7.81328 6.29812 7.81559 6.29983 7.81789C6.30148 7.8201 6.30315 7.8223 6.30483 7.8245C6.30943 7.83056 6.31403 7.83662 6.31826 7.84296C6.32239 7.84912 6.3261 7.85546 6.32983 7.86181C6.33112 7.86401 6.3324 7.8662 6.33371 7.86839C6.33504 7.87062 6.3364 7.87284 6.33775 7.87505C6.34113 7.8806 6.34451 7.88614 6.3476 7.89191C6.35106 7.89838 6.35413 7.90498 6.35719 7.91159C6.35825 7.91386 6.3593 7.91614 6.36037 7.9184C6.36142 7.92063 6.36249 7.92285 6.36356 7.92506C6.36651 7.9312 6.36946 7.93733 6.37207 7.94364C6.37465 7.94988 6.37686 7.9562 6.37908 7.96254C6.37993 7.96495 6.38077 7.96737 6.38164 7.96978C6.38247 7.97208 6.38331 7.97438 6.38415 7.97668C6.38667 7.98357 6.3892 7.99046 6.39135 7.99754C6.39326 8.00385 6.39481 8.01024 6.39635 8.01662C6.39695 8.01908 6.39754 8.02155 6.39816 8.024C6.39877 8.02642 6.3994 8.02882 6.40002 8.03123C6.40189 8.03839 6.40376 8.04555 6.40521 8.05288C6.40673 8.06057 6.40779 8.0683 6.40884 8.07604C6.40919 8.07862 6.40955 8.0812 6.40992 8.08378C6.41034 8.08679 6.41082 8.0898 6.41131 8.0928C6.41218 8.09826 6.41306 8.10373 6.41361 8.10929C6.41549 8.12843 6.41651 8.14763 6.41651 8.16682L6.41651 12.2502C6.41651 12.5723 6.15535 12.8335 5.83318 12.8335C5.51102 12.8335 5.24986 12.5723 5.24986 12.2502L5.24986 9.57513L0.995662 13.8293C0.767861 14.0571 0.398502 14.0571 0.170701 13.8293C-0.0570998 13.6015 -0.0570447 13.2322 0.170756 13.0043Z" stroke="#6C7080"/>
</g>
<defs>
<clipPath id="clip0_4725_6536">
<rect width="14" height="14" fill="white"/>
</clipPath>
</defs>
</svg>
